<?xml version="1.0" encoding="utf-8"?>
<!-- Generator: Adobe Illustrator 24.1.1, SVG Export Plug-In . SVG Version: 6.00 Build 0)  -->
<svg version="1.1" id="Layer_1" xmlns="http://www.w3.org/2000/svg" xmlns:xlink="http://www.w3.org/1999/xlink" x="0px" y="0px"
	 viewBox="0 0 380 346.8" style="enable-background:new 0 0 380 346.8;" xml:space="preserve">
<style type="text/css">
	.st0{fill-rule:evenodd;clip-rule:evenodd;fill:#4A6CD6;}
	.st1{fill:#488CF1;}
	.st2{opacity:0.2;enable-background:new    ;}
	.st3{opacity:0.1;fill:#FFFFFF;enable-background:new    ;}
	.st4{fill:#FFD231;}
	.st5{opacity:0.2;fill:#FFD231;enable-background:new    ;}
</style>
<g>
	<g>
		<path class="st0" d="M320.3,173.4c0,0.8,0,1.7,0,2.5c0,1.9-0.1,3.9-0.2,5.8c-4.3,68.5-61.2,122.8-130.8,122.8
			c-7.7,0-15.2-0.7-22.5-1.9c-17.8-3.1-34.3-9.7-48.9-19.2c-27-17.6-47.1-44.8-55.4-76.7c-1.9-7.2-3.2-14.7-3.8-22.3
			c-0.1-1.6-0.2-3.3-0.3-4.9l0,0c-0.1-1.9-0.1-3.9-0.1-5.9c0-0.7,0-1.4,0-2.1c0-0.2,0-0.5,0-0.7l0,0c0-0.4,0-0.8,0-1.2
			c0-1,0.1-1.9,0.1-2.9c0.4-7,1.3-13.9,2.7-20.6c6.1-28.6,21.6-53.8,43.1-72.2l0,0c22.9-19.5,52.6-31.3,85-31.3
			c5.6,0,11.1,0.3,16.4,1c17.3,2.2,33.5,7.7,48,15.9c38.9,22,65.5,63.4,66.6,111.1C320.3,171.3,320.3,172.3,320.3,173.4z"/>
		<g>
			<path class="st1" d="M165.8,58.7c-2.8,0.3-6.6,0.1-9.2,1.1c0-0.1,0-0.3,0-0.4c-0.8-0.4-2-1.3-2.7-2.4c-0.3-0.4-1.9-0.4-1.9-0.8
				c0-0.8-1.8-0.5-2.3-0.5c0,0.3-0.1,0.7,0,1c-0.1-1.5-1.9-0.9-2.7-1.2c0.1,0.3-0.1,0.4-0.2,0.6c-0.8-0.5-0.9,0.9-0.9,1.5
				c-0.3-0.4-0.5-1.1-0.9-1.3c-0.7-0.3-0.8,0.5-1.4,0.6c0,0.3-0.1,0.5,0,0.8c0.1,0.2,0.2,0.2,0.1,0.4c0-0.1-0.1-0.3-0.1-0.4
				c-0.6-0.2-1.1-0.8-1.6-0.1c-2.3-2-2.2,4.5-2.1,5.4c-0.3,0-0.8-0.2-1-0.3c0.2-1,0.9-2.9,0.2-3.8c-0.3-0.3-1.1-0.9-1.4-0.3
				c-0.4,0.9,0.4,0.7,0.6,1.2c-1.3-0.4-1.4,0.4-2.1,1.2c-0.6,0.7-1.2,0.1-0.6,1.7c-0.8-0.5-1,1.3-1,1.9c1.3-0.2,2.6-0.7,3.8-0.7
				c-0.7,0.7-2.5,1.2-3.4,1.6c-1.3,0.5-2.4,1.2-3.8,2c-1.2,0.7-1.3,1.3-2.5,1.9c-1.1,0.5-2.3,1.2-3.2,2c-1.7,1.3-2.9,3-4,4.9
				c-0.3,0.5-1.5,2.5-1.6,3.1c0,0,0.1,1.6,0,1.6c0.3,0.2,1.7-0.4,2-0.5c-0.9,2.2,2.6,1.8,3.2,0.4c0.4-0.9,2-2.2,2.8-2.8
				c2.1-1.8,4.4-3.1,6.4-4.7c1.5-1.2,2.9-1.9,4.7-2.1c1.2-0.2,4.6-1.1,5.4-2.1c0.9-1.1,3.8-1.7,5.1-1.9c2.3-0.4,4.7-0.8,7-1.5
				c2.2-0.7,4.7-1,6.3-2.9c1.4-1.7,4.6-1.1,6.1-2.7c1.1,0.9,2.1-1,3.2-1c0.6,0,3.3-0.5,3.4-1C172.2,58,168.9,58.4,165.8,58.7z"/>
			<path class="st1" d="M71.7,191.7c-0.2-1.3-1-1.6-0.7,0c0,0.6-0.7,2.7,0.3,2.2C71.5,193,71.9,192.7,71.7,191.7z"/>
			<path class="st1" d="M73.2,205.1c0.3-2,0.3-4.5-0.1-6.6c-0.2-1-0.6-1.7-0.5-2.7c0-0.7-0.2-3.5-1.2-1.9c-0.3,1.8,0.9,4.1,1.2,5.8
				C72.8,200.8,71.9,205.2,73.2,205.1z"/>
			<path class="st1" d="M74.4,201.8c0,0.3,0.4,2.5,1,1.4C75.7,202.6,75,201.4,74.4,201.8z"/>
			<path class="st1" d="M104.2,73.6c-0.3,0.5-0.8,1.1-1,1.7c-0.2,0.9-0.9,1.9-1.3,2.7c-0.4,0.7-0.6,1.9-1,2.5
				c-0.8,1.1-1.5,1-1.2,2.5c0.2,1,1.8,1.8,1,2.9c-0.6,0.9,0.3,1.7,0,2.8c-0.3,0.9-1,1.7-1.1,2.4c-0.1,0.5-0.1,2.1-1.1,1.3
				c0.3,0.9-0.7,2.5-1.3,3.3c-0.1,0.2-1.4,0.1-1,0.9c0.3,0.6,0.5,1.1-0.4,1.6c0.9-0.5,2.1-1.8,2.2,0.2c0,0.9-0.3,2.8-1.1,3.3
				c-0.1,0-0.2,0.1-0.3,0.2c0.1,0,0.2,0,0.3-0.2c1.1,0.5-0.6,3.2-1,4c-0.9,1.7-2.7,1.7-2.2-0.4c-0.4,0.5-1.5,2.2-2.1,2.1
				c-1.2-0.2-0.5-2.8,0.8-2.4c-0.9-1.4-3.9,1.5-3.2-1.2c0.3-1.3,1.5-2.4,2.3-3.4c1.4-1.8,3-3.9,4.3-5.8c-1,0-2.3,1.5-2.9,2.4
				c-1.1,1.5-3.2,1.5-4.9,1.5c0,0.1,0,0.2,0,0.2c0.9,0.1,1.6,2.1,0.8,2.7c-1.4,1.2-2.7-1.5-1.8-2.6c-1.4-0.5-2.4,1.8-3.1,2.7
				c1.7-1.3,2.6,0.1,1.7,1.7c-0.7,1.3-1.5,2.3-2,3.7c0.9-1.2,0.1,0.9,0.8,1c1.2,0.1,1,0.9,0.3,1.6c0.7-0.6,1.1-1.3,1.6-2
				c0.6-0.8,1.2-2.1,1.4-0.5c0,0.4-0.6,0.9-0.4,1.2c0.3,0.5,0.1,1.4-0.2,1.8c-0.5,0.8-1.5,1.2-2.1,2.1c-1,1.4-3.3,2-4.4,3.4
				c-0.3,0.3-1.2,2-1.5,2.1c-1.8,0.5-0.7-2.3-0.3-2.9c-1.3,0.6-2.5,1.6-3.4,2.7c-1.1,1.3-1.4,2.7-2.3,4.1c1.8,0.7-1.4,3.2-1.9,3.6
				c-0.6,0.4-0.9,1.3-1.5,1.8c-0.9,0.7-1.3,0.8-1.6,2c-0.4,1.6-1.8,3.1-2.1,4.6c-0.3,1.6-1.4,2.9-1.9,4.4c-0.6,1.7-0.2,3.8-1.3,5.4
				c-0.4,0.6-0.3,1.2-0.7,1.8c-0.2,0.4-0.6,0.6-0.9,1C67.2,117.1,82.7,92,104.2,73.6z"/>
			<path class="st1" d="M70.2,190.8c-0.1,0.1-0.1,0.3-0.2,0.4C69.4,193.6,72.1,191.4,70.2,190.8z"/>
			<path class="st1" d="M65.8,188.1c0,0.5-0.1,3,1.2,2.2c0.8-0.5,1.5,1.2,1.9,0.2C69.2,189.7,66.5,186.7,65.8,188.1z"/>
			<path class="st1" d="M69.7,189.1c-0.5,0.6,0.1,1.6,0.4,1.7C70.4,190.4,70.4,188.3,69.7,189.1z"/>
			<path class="st1" d="M61.1,178.9c0,0-0.6-0.6-0.7-0.6c-0.2-0.1-0.3,0.2-0.5,0.2c-0.5,0,0-0.5-0.2-0.8c-0.8-1.2-0.5-2.1-0.9-3.4
				c0.2-1.1-0.5-1.9-0.6-3l0,0c0-0.2,0-0.5,0-0.7l0,0c0.1-0.1,0.1-0.2,0.1-0.5c0.9,0.1,1.2,2.7,1.2,3.6c0,0.3,0.1,0.5,0.1,0.8v0.1
				l0,0c0.3,1.1,1,2,1,3C61.3,177.2,61.3,178.3,61.1,178.9z"/>
			<path class="st1" d="M58.2,169.3c0-1,0.1-1.9,0.1-2.9C58.7,167.1,58.7,168.7,58.2,169.3z"/>
			<path class="st1" d="M61.6,188.7c0.2,0.2,0.1,0.6,0.3,0.7c0.4,0.3,0.1,0.6,0.7,0.6c-0.4-1.5,0.8-0.7,1.1-1.5
				c0.3-0.7,1.1,0.8,1.5,0.9c0.1-1.9-0.2-3.4-1.4-4.9c-0.5-0.7-1.1-0.8-1.7-1.1l-0.2,0.3c-0.3,0.4-0.2-0.3-0.3-0.3
				c-0.4-0.1-0.4-1.4-1-0.1c-0.5,0.8,0.4,1.4,0.2,2.2c-0.1,0.6-1.8,0.8-1,1.8c0.7,0.9,0.7,0.8,1.3,1.2
				C61.2,188.8,61.4,188.5,61.6,188.7z"/>
			<path class="st1" d="M117.8,283.3c-27-17.6-47.1-44.8-55.4-76.7c0.5-0.4,0.2-1.8,1-1.8c1.7,0.1-0.2,3.5,1.2,3.5
				c-0.2-1-0.2-2-0.2-3c0-0.7,0.9,0.2,0.7,0.8c0.1,0,0.2,0,0.3,0c0-0.1,0-0.3,0-0.5c0.7,0.7,1.6,0.6,1.4,2.1
				c-0.3-0.1-0.8-0.1-1.2-0.3c0.1,0.9,0.8,0.6,1.1,1.1c0.2,0.4,0.3,1.7,0.6,1.9c0.4,0.5,1.4,0.4,2,0.8c0.4,0.3,0.5,0.9,0.8,1.2
				c0.2-0.6-0.3-2,0.5-2.2c0.6-0.2,0.6,0.5,0.7,0.9c0,0.2,1.4,0.6,1.8,0.6c0.8,0,2-0.8,1.3,1c-0.1,0.3-0.1,2.3-0.2,2.3
				c0.7,0.6,0.3,1.9,1,2.3c0.6,0.4,1.1,0.9,1.5,1.6c0.3,0.6,0.7,1.3,1,1.9c0.1,0.2,0.3,0.5,0.4,0.7c0.1,0.2,0.1,0.2,0.2,0.5
				c0.1,0.9,0.3,0.4,0.7,0.9c0.9,1.5,1.3,2.4,3.1,2.8c1.5,0.4,2.6,1.9,3.8,3c1,0.8,1.8,2.7,2.3,3.9c0.5,1.1,0.8,3.2,1.7,4
				c2.1,1.7,1.3,4.5,0.6,6.7c0.1,0,0.2,0,0.3,0c0-1.4,1.1-0.7,1.8-0.3c1,0.5,1.2,0.5,1.7,1.6c0,0,2.1,1.2,2.4,1.3
				c0.9,0.4,1.2,1.5,2.2,1.8c0.5,0.2,0.9,0.9,1.1,1.4c0.2,0.3,0.3,0.7,0.4,1c0.2,0.5,0.8-0.1,1.2,0.1c0.8,0.3,1.4,0.9,2.2,1.2
				c0.7,0.3,1.8,0.7,2.5,1.1c2.5,1.5,3.5,4.4,5.9,6c0.7,0.5,2.3,0.6,2.5,1.6c0.1,0.7,0.7,1.5,1,2.2c0.5,1,1.4,2.3,1.3,3.4
				c-0.1,1.8-0.3,2.6-1,4.1c-0.5,1.1-0.2,2.4-0.9,3.4c-0.6,0.7,0.4,2.4,1,3.3c0.3,0.6,0.3,1.3,0.7,1.8c0.4,0.6,0.9,0.6,1,1.1
				c-0.2-0.1-0.4-0.2-0.6-0.2c0.5,0.9,0.3,1.6,0.8,2.5C118,282.1,117.9,282.9,117.8,283.3z"/>
			<path class="st1" d="M60.7,182.1c0.6-0.3,0.8-2.7-0.1-2.4C60.6,179.8,59.5,182.6,60.7,182.1z"/>
			<path class="st1" d="M58.6,184.2c-0.1-1.6-0.2-3.3-0.3-4.9c0.8,0.9,1.4,2.2,1.7,3.1C60.5,183.8,59.5,184.3,58.6,184.2z"/>
			<path class="st1" d="M319.4,174.2c-0.9-0.8-2.3,0-3.3-1c-0.9-1-0.9-2.6-1.1-3.8c-0.1-0.7,0.1-2.9-0.5-3.1
				c-0.8-0.3-1.6,2.1-1.9,2.5c-0.6,0.7-1,1.6-1.4,2.3c-0.2,0.4-0.3,1.1-0.6,1.2c-0.6,0.2-0.9,0.5-0.9,1.1c-1-0.4-2.4-0.8-3.2,0.1
				c-0.7,0.8-0.6-0.7-1.4-0.7c0.3-1.2,0.5-3.7-0.2-4.7c-0.9-1.5-1.7-0.4-2.2,0.8c-1.1-1-0.7-3.4-1.9-4.7c-1.1-1.2-2-2.3-2.6-3.6
				c-0.3-0.7-0.7-1.4-0.7-2.2c-0.1-1,0.1-1.4,1.1-1.6c0.2,0,1.4-0.1,1.6,0c0.5,0.3,0.5,0.9,1,1.5c0.8,1,1.2,2.7,1.9,3.9
				c0.7,1.1,1.4,0.5,2.1,1.3c0.3,0.4,0.9,0.1,1,0.7c0.1,0.5,0.2,0.6,0.5,1c0.2,0.2,1.5,1.2,1.8,1.4c0.5,0.2,1.4-0.1,1.7,0.3
				c0.1,0.1,0.4,0.5,0.5,0.5c1.5,0.2,2.2-1.8,3.8-2c0.3,1.1,0.7,2.3,1,3.5c0.4,1.5,2.5,0.3,3.3,1.2c0.1,0.1,0.6,0.2,1.3,0.4
				c-1.1-47.7-27.6-89-66.6-111.1c-0.7,0.2-1.4,0.4-2,0.7l0.4,0.2l-0.2,0.2c-0.8,0-1.5-0.2-2.2-0.6v-0.2h0.7c-1.5-1.3-3.9-2-6.1-1.8
				v0.4c1.7,0.7,2.9,1.5,4.3,2.6c-3-0.6-4.8-0.1-3.1,2.4c-2.1-1.2-4.3-1.5-5.4-0.4c0.2,0.1,0.4,0.2,0.5,0.4l-1.5-0.4
				c0.1-0.2,0.3-0.3,0.5-0.2c0.1-0.3,0-0.5-0.2-0.8h-1.8c-0.1-0.5-0.3-0.8-0.6-1.2l-0.5-0.2h0.2l0.4,0.2c16.1-2.7-3.1-4.3-10.5-5.3
				c0.2-0.1,0.2-0.2,0.2-0.4c-6.5-1.7-13.7-1.5-19.6,0.6c-0.9-0.3-2-0.1-2.9,0.4v0.4c-1.2-0.1-2.1,0.3-2.4,1.4
				c1.1-0.4,2.2-0.5,3.3-0.2c-1.4,0.8-2.7,1.7-3.6,2.6v0.6l0.5,0.2c-0.7,0-1.5,0.3-1.8,0.8l0.4,0.2c-1.7,0.8-3.1,1.4-4.7,1.8
				c-0.7-0.2-1,0-0.9,0.6l0.4,0.2c-1.9,0.4-3.5,1-5.3,1.8v2c-0.3,1.2,0.1,2.9,0.9,4.1c-0.4,1.5,0.4,2.2,2,2.4l0.2,0.4
				c3,0,5.5-0.7,8-2.4c0.8,1.1,1.3,2.2,1.6,3.4c0.9,0.9,1.8,1.6,2.7,2.2v0.4c-1.3,0-2.3,0.4-2.7,1.4c0,0.4-0.1,0.8-0.2,1.2
				c0-0.5,0-0.9,0.2-1.2c0-1.1-0.4-1.9-1.6-2.4c-1.2-4-3-1.6-4.7,2.2l-0.4,0.2c-0.2,0.9,0.2,1.3,1.1,1.4c-0.1,0.4-0.2,0.8-0.1,1.2
				l0.4,0.2c-1.5,1.3-5.8,3.6-9,4.7l-0.2,1.4c-3.2,2.5-6,5.1-8.3,7.5c-0.9,0.1-1.6-0.1-1.8-0.8c-0.8-0.3-1.7-0.3-2.5,0
				c0.1,0.9,0.2,1.7,0.6,2.6c-3.5-1-6.4-0.6-6.7,2.8c0.4,0.1,0.6,0.4,0.6,0.8c1.5-0.2,3,0.3,4,1.4h0.6c-0.3,1.6,0.5,2.4,2.2,2.4
				c-0.4,0.9-0.5,1.8-0.2,2.8h-0.3c-0.1,1.7-0.3,3.3-0.7,4.9c-1.1-0.1-2.3-0.1-3.3,0.2c-1.7-0.5-3.7-0.5-5.6,0
				c-2.1-1.2-5.1-1.2-7,0.6c-0.9-0.1-1.6,0.2-2.2,0.8c0.6,2.9,0.8,5.7,0.4,8.6c-1.7,2-2.3,4.5-1.7,6.8l0.6-0.1
				c0.2,1.3,0.1,3-0.2,4.4c1.9,0.4,3.5,0.3,5.4-0.2c0.3,1.4,1,2.7,2,3.8c-2.2,4.5-5.3,8.2-9,11.1h0.4c-0.7,4.2-2.3,8.1-4.9,11.1
				c-9.5,4.5-16.2,14.6-15,24.9l0.4-0.1c0.6,6,1.1,14.2,1.2,19.4c4.7,10.2,18,12.8,30.7,9.5c7.4-1.9,13.8-1.3,14.5,2.8
				c5.3,0,2.3,7.1,7.7,9c3,2.6,8.1,4.1,10.9,3.9c-0.6,3,0.5,3.8,3.1,4.4c-0.9,1.4-1.5,3.3-1.8,5.1l0.4-1c2.8,1.1,4.6,5.5,5.5,7
				c1.8,2.8,0.6,4.1,6.3,6.4c2.9,3.2-5,4.2-3.7,7c0.6,0.9,1.5,2.3,0.4,3.2c-7.7,8.4,1.2,13.9-0.2,15.4c1,1.6,2.3,3.1,4,4.3
				c-0.3,2.4,2.9,2,5.8,1.2c5.4-1,4.1-2.9,8.7-4.1c2.1-0.6,10-0.2,12.3-1c1.3-1.2,2.6-2,4-2.8c7.3-9.2,5.5-14,9.5-13.6
				c6.1-2.2,11.4-7.8,16.4-14.3c2.9-3.8-2.5-9.6,2.1-13c2.2-1.7,4.4-5,7.8-6.9c2.3-1.3,5.7-0.8,8.2-2.8c2.9-2.4,7.3-2,8.8-5.3
				c3.2-3.5,5-8.2,4.5-12.1H302c-3.8,1.7-8.4,3.4-12.5,4.7h-0.7l-0.4-0.2c-1.2-1.1-1.6-2.1-1.1-3.2c-0.5-1.4,2.2-1.9,3.3-1.8
				c5.1-2.7,10.4-5.5,16.1-8.5c0.3-0.7,0.2-1.8,0.9-2.3c0.5-0.4,1.4-0.4,2-0.6c1.3-0.5,3.6-0.9,3.6-2.7c0-0.8,0-0.9,0.9-1
				c1.4-0.2,0.9-1,1.5-1.8c0.7-0.8,2.2-0.8,2.6-1.7c0.2-2.2,0.9-4.2,2.1-6.2c0.1-1.9,0.2-3.9,0.2-5.8
				C320.1,175.2,319.8,174.5,319.4,174.2z M259.9,105.4c1.8-0.3,3-0.6,4.7-1.3c-0.1,0.5-0.4,0.6-0.9,0.5c0.7,1.2,0.7,2.3,0.2,3.6
				c-1.3-0.7-2.6-0.8-4-0.3C258.8,107.1,258.9,106.3,259.9,105.4z M245.6,114.6c1.5-0.6,1.6-2.3,1.1-3.9c1.6-0.4,2-1.4,1.5-3
				c0.8-0.4,1.5-1.3,1.6-2.4l0.4-0.2c1.5,1,2.9,1.6,4.5,1.8c7,2.7,29.6,8.4,10.5,13.1c-0.4-1.2-1.1-1.5-2.2-0.8
				c-0.4-0.2-0.7-0.5-0.7-1c-3.3-0.8-6.7-0.1-8.7,2.4l-0.6,0.2c-1.3-0.7-2.9-0.7-4.5-0.2v-0.4c-0.4-0.5-0.9-0.7-1.5-0.7
				C245.8,118,245.3,116.5,245.6,114.6z M205.2,82.8l-0.1-0.5c0.7-0.3,1.1-0.8,1-1.5c4.1,0.4,7.2-1,8.3-4.5h-0.9
				c0.2-1,0.3-1.8,0.4-2.8c3.5-2,2.9-3.8-0.9-5.1c0-0.9,0-1.7-0.2-2.6c2-1.1,3.7-2.2,5.4-3.4c0-0.4-0.2-0.7-0.5-1
				c1-1.3,2.7-1.4,4.2-0.6l-0.2,0.2c-0.5,1-1.5,2.1-2.5,2.8c-0.9-0.5-1.6-0.5-1.6,0.6l0.4,0.2c0,1.1,0.5,2,1.5,2.4
				c-0.3,0.9-0.2,1.8,0.3,2.6c0.5,0.2,1,0.3,1.5,0.1c3.5,0.8,8.2,1.3,12.1,1.3l-0.7,0.2V72c-2.7-1.4-5.7-1.2-7.8,0.6
				c-1.2-0.4-2.2-0.2-2.4,0.8c-0.2,0.8,0,1.6,0.5,2.2c-0.6,0.2-0.8,0.7-0.7,1.3c-0.2,1.5-0.3,3-0.4,4.5l-1.3,0.2
				c-0.1,0.5-0.3,0.8-0.7,1c-3.6-1.2-7.3-0.4-10.2,2.1c-0.2-0.5-0.6-0.8-1-1.1c0.3-1.2-0.4-1.6-1.8-1.4c-0.5,0.5-1.8,1.1-2.9,1.4
				l-0.5-0.4L205.2,82.8z M238.2,148.5c-7-3.2-9.9,0.2-10.3,7.1c-2.2-2.3-4.9-3.6-8-3.6c-2.4-4.4-6.8-6.4-12.2-6
				c-0.4-0.7-0.7-1.3-0.8-2.1c-0.7-0.4-1.3-0.4-1.8,0.2c-0.3-1.1,0.4-2.3,1.8-3.2c-0.1-1.6-0.5-2.9-1.5-4.1l0.4-0.2
				c0.5-0.9,0.6-1.7,0.5-2.8c-0.2-0.1-0.4-0.2-0.5-0.4c-0.5,0-0.9,0.3-1.1,0.8c-2.4-1.6-6-1.4-9,0c-1.2-0.9-2.7-0.6-4.2,0.4
				c-1.5-0.9-3.3-0.9-4.7,0c-3-0.3-6.2,0.8-8.3,3c-4,1.7-6.9,2.2-11.4,2c-0.3-0.7-0.6-1.5-0.9-2.2c2.9-1,6.7-2.5,9.1-3.6
				c2.2-0.6,3.2-1.9,3.6-4.2c2.2-4.5,5.7-10.5,9.2-15.8c4.4,1.6,8.1,0.8,11.4-2.6v-0.3c2,0.4,3.4,1.6,3.8,3.6
				c-1.7,1.9,0.5,1.7,2,1.6v0.4c-0.7-0.1-0.9,0.2-0.5,0.8h1.6c1,1.4,2.4,2.7,3.8,3.8c5.4,1.6,8.3,5.5,8.2,10.9h0.8
				c2-2.4,2.5-4.8,0.9-7.1c0.1-1.1,0.7-1.5,1.8-1l0.2,1c4.2-0.9-0.5-3.6-4-5.6c0.3-0.5,0.2-1.1-0.2-1.6c-3.6-1.6-6.8-3.8-9.6-6.7
				c-0.3-1.7,0.2-3,1.7-3.6l0.4,0.2c-0.2,1.1,0.1,1.8,0.7,2.6c0.6,0.3,1,0.2,1.3-0.2c4.1,3.4,8.5,6.6,13,9.5
				c-0.2,1.6-0.1,3.2,0.2,4.7c0.3,0.2,0.7,0.3,1.1,0.4v0.2c-0.3,1.4,0.7,2.6,2.5,3.4c-0.1,3.5,1.6,5.9,4.7,7.5
				c0.2,0.3,0.4,0.6,0.5,1c2.5,1.8,3.1,0.5,2.4-2.8c1.1,0.2,0.9-0.8,0.4-1.4c0.5,0.4,1.3,0.2,1.6-0.4c0,0.3,0.2,2.5,0.7,2.6
				c0.3,0.1,0.4-2,0.4-2c0.6,0.9,1.1,0.3,1.1,1.6c-0.3,0.7,0,1,0.7,1c1.1,0.2,1.5-0.5,1.3-1.6c-0.8-1-1.7-2-2.8-2.7
				c-1.2-0.8-1.6-1.8-2.2-3.1c-0.8-1.6-2.7-2.1-3.5-4c1.5,1.9,5.3,0.6,3.6-1.2c1.1,0.7,1.3,0,2-0.6c0.2,0.1,0.5,0.1,0.7,0.2
				c-0.8,0.6,0,0.9-0.9,1.7c-0.3,0.3-0.7,0.8-0.2,1.2c1.1,0.9,1.3-0.2,1.9,0c2,0.4-1.3,3,1.7,3.5c-0.7-0.1-1.3,0-1.4,0.8
				c-0.1,1.5,0.9,1.6,2.1,2.1c-0.9,0.3-1.4,1-1.1,2c1,0.3,1.1-0.5,1.9-0.4c1.5,0.2,0.8,3.3,2.1,2.7c1.5,5.2,1.9-0.6,3.4,0.3
				c0.9,1.7,2.6,2,4.5,1.2c0.4-0.5,0.5-1,0.2-1.6c3.3,2.2,6.6,2.5,9.6,0c0.5,0.5,1.1,0.7,1.8,0.6c-0.1,0.5,0,0.9,0.3,1.2
				C265.2,154.4,254,156,238.2,148.5z M285.2,204c-0.4-0.7-0.8-1.1-1.3-1.8c-0.5-0.8-1.2-1.2-1.8-1.9c-0.9-0.9-2.9-1.8-3-3
				c-0.3-2.2-0.9-3.9-1.7-5.8c-0.3-0.7-1.4-1.5-2.1-1.9c-0.9-0.5-0.7-2.7-0.7-3.4c0-1.7-0.1-4.3-0.9-6c-0.3-0.5-1-1-1.4-1.5
				c-0.8-0.9-1.9-0.6-1.9-2.1c0-0.7,0.8-1.1,0.6-2c-0.1-0.3-0.6-0.5-0.7-0.8c-0.4-0.6-0.7-1.2-1.1-1.8c-1.5-2.7-3.1-6.2-3.8-8.7
				c0.8,1,2,0.4,1.8-0.8c1.6,0,2.1,2.5,3,3.5c0.7,0.7,0.9,1.3,1.1,2.3c0.2,0.7,1,1.1,1.3,1.8c0.5,1.1,0.5,2.3,1.1,3.4
				c0.6,1,1,0.6,1.8,1.2c3.5,2.4,0.7,8,3.6,10.7c0.7,0.6,1.5,0.8,2.1,1.5c0.8,0.9,0.7,2,1.2,3.1c0.7,1.7,1.7,3,2.4,4.7
				c0.3,0.8,1.8,2.5,0.9,3.5c-0.8,0.9-0.2,1.2,0.1,2.3c0.4,1.7,0.2,3.7,0.7,5.3C285.5,205.8,285.6,204.7,285.2,204z M294.3,131.1
				l-0.2-1c0.5-1.2,0.6-2.9,0.2-4.4c-0.6-1.3-4.6-8.4-7.1-12.1l-0.9-0.2c-0.2-0.8-0.8-1.3-1.6-1.6c0-0.9,0-1.9,0.2-2.8
				c1.5-0.5,2.5-1.2,3.1-2.2c0.6-0.7,1.4-1.2,2.4-1.4c0.5,0.6,1.1,0.8,1.8,0.8c0.1-0.1,0.2-0.3,0.3-0.4c1.2,0.7,1.8,2.1,1.6,3.6
				c-2.3-0.6-3,0.2-2.2,2.3h-1.3c1.5,2.7,3.8,5.1,6.5,6.7c0.6,3.2,2.2,6.6,4.2,8.9c1.1,2.1,2.4,5,3.4,8.1h-2.4v0.4
				c-0.7-0.2-1.5-0.3-2.2-0.1c-0.5-0.5-1.2-0.9-1.9-1.1C296.8,133.6,295.6,132.5,294.3,131.1z"/>
		</g>
		<path class="st2" d="M320.3,173.4c0,0.8,0,1.7,0,2.5c0,1.9-0.1,3.9-0.2,5.8c-4.3,68.5-61.2,122.8-130.8,122.8
			c-7.7,0-15.2-0.7-22.5-1.9c5.2-4.6,10.7-8.9,16-13.3c27.7-23,52.1-50.6,68.5-82.7c12.4-24.4,20.2-52.4,14.8-79.3
			c-6.9-34.5-33.4-60.7-60.3-84c17.3,2.2,33.5,7.7,48,15.9c38.9,22,65.5,63.4,66.6,111.1C320.3,171.3,320.3,172.3,320.3,173.4z"/>
		<path class="st3" d="M106.4,80.7c-7.4,7-13.4,15.4-16.6,24.5c-0.8,2.2-1.4,4.6-0.6,6.7c1.2,3.3,5.3,4.7,8.8,4.4
			c5.1-0.5,9.5-3.8,13-7.5c3.5-3.8,6.2-8.1,9.7-11.9c7.8-8.4,18.5-13.2,28.8-18.1c2.2-1,4.4-2.1,6.2-3.8s3-4.1,2.6-6.5
			c-2-13-19.7-7.4-27.5-4.1C122.3,68.1,113.6,73.8,106.4,80.7z"/>
	</g>
	<g>
		<path class="st4" d="M252.1,126.4c-1.6-16-4.1-31.9-7.9-47.5c-1.9-7.8-4.1-15.5-6.8-23.1c-2.7-7.6-5.8-15-9.7-22.1
			c-3.9-7.1-8.4-13.9-14.3-19.6c-2.9-2.8-6.3-5.3-10-7.2c-3.7-1.9-7.8-3-12-3l0,0c-4.2,0-8.4,1-12.1,2.7c-3.8,1.8-7.1,4.2-10.2,6.9
			c-6,5.5-10.8,12.2-14.8,19.2c-3.1,5.5-5.9,11.1-8.3,16.9c0.7-0.2,1.4-0.5,2.1-0.7c2.3-5.2,4.8-10.4,7.7-15.3
			c4-6.8,8.7-13.3,14.6-18.6c2.9-2.6,6.2-4.9,9.7-6.5s7.3-2.5,11.2-2.4c3.9,0,7.6,1,11.1,2.7s6.7,4.1,9.5,6.8
			c5.7,5.4,10.3,12.1,14.1,19c3.9,7,7,14.3,9.8,21.8c2.7,7.5,5,15.2,7,22.9c3.9,15.5,6.4,31.4,8.1,47.3c1.6,15.9,2.3,32,2.1,48
			c-0.2,16-1.3,32-3.4,47.9c-2,15.9-5,31.6-9.3,47.1c-2.1,7.7-4.6,15.3-7.5,22.8c-2.9,7.4-6.3,14.7-10.3,21.6
			c-4,6.8-8.7,13.4-14.6,18.7c-2.9,2.6-6.2,4.9-9.7,6.6c-3.5,1.6-7.4,2.5-11.3,2.5c-3.9,0-7.7-1.1-11.2-2.8
			c-3.5-1.7-6.7-4.1-9.6-6.8c-5.7-5.5-10.3-12.1-14.1-19.1c-2.9-5.2-5.4-10.6-7.6-16.2c-0.6-0.2-1.2-0.4-1.8-0.7
			c2.3,6,4.9,11.9,8,17.5c3.9,7.1,8.4,13.8,14.3,19.5c2.9,2.8,6.2,5.3,9.9,7.1c3.7,1.8,7.8,2.9,11.9,3c4.1,0.1,8.3-0.9,12-2.7
			c3.7-1.7,7.1-4.1,10.1-6.9c6-5.5,10.8-12.2,14.8-19.1c4-7,7.4-14.3,10.3-21.8s5.4-15.2,7.5-22.9c4.2-15.5,7.2-31.3,9.1-47.3
			c2-15.9,3-32,3.2-48C254.3,158.4,253.7,142.3,252.1,126.4z"/>
		<path class="st4" d="M372.9,169.8c-1.2-1.8-2.6-3.4-4.2-4.7c-3.2-2.7-6.8-4.8-10.4-6.7c-7.4-3.7-15.2-6.3-23-8.6
			c-5.9-1.7-11.9-3.2-18-4.6c0.1,0.5,0.2,1,0.3,1.5c5.8,1.3,11.5,2.8,17.2,4.5c7.8,2.3,15.5,5,22.7,8.6c3.6,1.8,7.1,3.9,10.1,6.5
			c1.5,1.3,2.8,2.8,3.9,4.4c1,1.6,1.7,3.5,1.6,5.3c0,1.9-0.7,3.7-1.8,5.3c-1.1,1.6-2.5,3-4,4.3c-3.1,2.5-6.6,4.5-10.3,6.2
			c-7.3,3.4-15.1,5.9-22.9,8c-15.7,4.2-31.8,6.9-47.9,8.9c-16.2,2-32.4,3.3-48.7,4.1c-16.3,0.8-32.6,1.1-48.9,0.9
			c-16.3-0.3-32.6-1-48.8-2.2s-32.4-3-48.5-5.4c-16.1-2.5-32.1-5.6-47.7-10.3c-7.8-2.3-15.5-5-22.6-8.7c-3.6-1.8-7.1-3.9-10-6.5
			c-1.5-1.3-2.8-2.7-3.8-4.3c-1-1.6-1.6-3.4-1.6-5.2c0-1.9,0.7-3.6,1.7-5.2c1-1.6,2.4-3,3.9-4.2c3-2.5,6.6-4.5,10.2-6.2
			c7.3-3.4,15-5.9,22.9-8.1c5.7-1.5,11.5-2.9,17.2-4c0.1-0.6,0.3-1.2,0.4-1.8c-6.1,1.2-12.1,2.5-18.1,4.1c-7.9,2.1-15.8,4.5-23.3,8
			c-3.7,1.8-7.4,3.8-10.7,6.4c-1.6,1.3-3.2,2.9-4.4,4.7c-0.6,0.9-1.1,1.9-1.5,3c-0.2,0.5-0.3,1.1-0.4,1.6s-0.2,1.2-0.2,1.7l0,0
			c0,2.3,0.8,4.5,1.9,6.4c1.2,1.8,2.7,3.4,4.3,4.8c3.2,2.7,6.8,4.8,10.5,6.7c7.4,3.7,15.2,6.3,23,8.6c15.7,4.5,31.8,7.6,48,9.9
			c16.1,2.4,32.4,4.1,48.7,5.2c16.3,1.2,32.6,1.8,48.9,2c16.3,0.2,32.6,0,48.9-0.7s32.6-2,48.8-4c16.2-2,32.3-4.6,48.2-8.8
			c7.9-2.1,15.7-4.6,23.2-8c3.7-1.8,7.4-3.8,10.6-6.4c1.6-1.3,3.1-2.8,4.3-4.6c1.2-1.8,2-3.9,2.1-6.2
			C374.8,173.8,374,171.6,372.9,169.8z"/>
		<path class="st4" d="M328.2,80.1c-0.9-4-2.6-8-5.1-11.3l0,0c-2.6-3.3-6-5.9-9.7-7.7s-7.7-2.9-11.8-3.6c-8.1-1.2-16.3-0.8-24.2,0.5
			c-8,1.2-15.8,3.2-23.5,5.7s-15.2,5.4-22.5,8.6c-14.7,6.4-28.9,14.1-42.6,22.5c-13.7,8.4-26.8,17.7-39.4,27.6
			c-12.7,9.9-24.8,20.4-36.3,31.6c-11.5,11.2-22.3,23.1-32.1,35.9c-4.9,6.4-9.5,13-13.7,19.8c-4.2,6.9-8,14-11.1,21.4
			s-5.5,15.3-6.2,23.4c-0.3,4-0.2,8.2,0.7,12.2c0.9,4,2.6,7.9,5.1,11.2c2.6,3.3,5.9,5.9,9.6,7.7c3.7,1.8,7.7,2.9,11.7,3.6
			c8.1,1.3,16.2,0.8,24.2-0.4c6.3-1,12.5-2.4,18.5-4.1c-0.5-0.3-1-0.7-1.5-1c-5.7,1.6-11.4,2.8-17.2,3.7c-7.9,1.1-15.9,1.6-23.7,0.3
			c-3.9-0.6-7.7-1.7-11.2-3.5c-3.5-1.7-6.6-4.2-9-7.2c-2.4-3.1-4-6.7-4.9-10.5s-1-7.8-0.7-11.7c0.7-7.9,3-15.6,6-22.9
			c3-7.4,6.8-14.4,10.9-21.3c4.2-6.8,8.7-13.4,13.6-19.8c9.7-12.7,20.4-24.6,31.8-35.9c11.4-11.2,23.5-21.8,36.1-31.7
			c12.6-9.8,25.8-19,39.5-27.4c13.7-8.3,27.8-15.9,42.5-22.2c7.4-3.1,14.8-6,22.5-8.3c7.6-2.4,15.4-4.3,23.3-5.4
			c7.9-1.1,15.9-1.5,23.7-0.3c3.9,0.6,7.7,1.7,11.1,3.5c3.5,1.7,6.6,4.2,8.9,7.2c2.4,3,4,6.6,4.8,10.4c0.9,3.8,1,7.7,0.7,11.7
			c-0.6,7.9-3,15.5-6,22.9c-2.2,5.4-4.8,10.6-7.6,15.7c0.2,0.7,0.5,1.4,0.7,2.1c3.2-5.5,6.1-11.2,8.6-17.1
			c3.1-7.4,5.6-15.3,6.3-23.4C329.2,88.3,329.1,84.1,328.2,80.1z"/>
		<path class="st4" d="M307.9,258.4c-1.6-6.1-3.7-12-6.1-17.8c-0.4,0.7-0.7,1.2-1.1,1.9c2.1,5.3,4,10.9,5.4,16.4
			c2,7.7,3.2,15.6,2.8,23.5c-0.2,3.9-0.9,7.8-2.2,11.4c-1.3,3.6-3.4,7-6.2,9.6c-2.8,2.7-6.1,4.7-9.8,5.9c-3.7,1.3-7.6,1.8-11.5,1.9
			c-7.9,0.2-15.8-1.3-23.4-3.4c-7.6-2.2-15.1-5.1-22.3-8.5c-7.2-3.4-14.3-7.2-21.1-11.3c-13.7-8.2-26.7-17.6-39.1-27.7
			c-12.4-10.1-24.2-21-35.4-32.4c-11.2-11.5-21.7-23.6-31.5-36.2c-9.8-12.7-18.8-25.9-26.7-39.8c-3.9-7-7.6-14.1-10.8-21.4
			c-3.2-7.3-6-14.8-8-22.5S57.6,92.4,58,84.5c0.2-3.9,0.9-7.9,2.2-11.5c1.3-3.7,3.4-7,6.2-9.7s6.2-4.7,9.9-6s7.6-1.8,11.6-1.9
			c7.9-0.2,15.8,1.3,23.5,3.5c3.1,0.9,6.1,1.9,9.2,3l1.6-0.9c-3.4-1.3-6.8-2.5-10.3-3.5c-7.7-2.2-15.8-3.8-23.9-3.7
			c-4.1,0.1-8.2,0.7-12.1,2c-3.9,1.3-7.6,3.4-10.5,6.3c-3,2.9-5.2,6.5-6.6,10.4s-2.1,7.9-2.3,12c-0.4,8.1,1,16.2,3,24
			c2.1,7.8,4.9,15.4,8.1,22.7c3.3,7.4,6.9,14.5,10.9,21.5c8,14,17.1,27.2,27,39.9s20.5,24.7,31.7,36.2s22.9,22.5,35.3,32.7
			c12.4,10.2,25.4,19.7,39.2,28c6.9,4.2,13.9,8.1,21.2,11.5c7.3,3.5,14.8,6.5,22.5,8.8s15.8,3.9,24,3.7c4.1-0.1,8.2-0.6,12.1-2
			c3.9-1.3,7.7-3.4,10.6-6.3l0,0c3-2.9,5.2-6.6,6.6-10.5c1.4-3.9,2.1-8,2.3-12.1C311.3,274.3,309.9,266.2,307.9,258.4z"/>
	</g>
	<g>
		<g>
			<path class="st5" d="M68.3,65.1c-2.6,0-4.8-2.2-4.8-4.8s2.2-4.8,4.8-4.8s4.8,2.2,4.8,4.8C73.1,63,70.9,65.1,68.3,65.1z"/>
			<path class="st4" d="M71.7,60.3c0,1.9-1.6,3.5-3.5,3.5s-3.5-1.6-3.5-3.5s1.6-3.5,3.5-3.5C70.2,56.8,71.7,58.4,71.7,60.3z"/>
		</g>
		<g>
			<path class="st5" d="M4.8,176.1c-2.6,0-4.8-2.2-4.8-4.8c0-2.6,2.2-4.8,4.8-4.8c2.6,0,4.8,2.2,4.8,4.8
				C9.6,174,7.4,176.1,4.8,176.1z"/>
			<circle class="st4" cx="4.8" cy="171.3" r="3.5"/>
		</g>
		<g>
			<path class="st5" d="M374.2,181.7c-3.2,0-5.8-2.6-5.8-5.8c0-3.2,2.6-5.8,5.8-5.8c3.2,0,5.8,2.6,5.8,5.8
				C380,179.1,377.4,181.7,374.2,181.7z"/>
			<circle class="st4" cx="374.2" cy="175.9" r="4.2"/>
		</g>
		<g>
			<path class="st5" d="M320.3,73.5c-3.2,0-5.8-2.6-5.8-5.8s2.6-5.8,5.8-5.8c3.2,0,5.8,2.6,5.8,5.8
				C326.2,70.9,323.5,73.5,320.3,73.5z"/>
			<path class="st4" d="M324.6,67.6c0,2.3-1.9,4.2-4.2,4.2c-2.3,0-4.2-1.9-4.2-4.2s1.9-4.2,4.2-4.2S324.6,65.3,324.6,67.6z"/>
		</g>
		<g>
			<path class="st5" d="M230.6,304.8c-3.2,0-5.8-2.6-5.8-5.8s2.6-5.8,5.8-5.8s5.8,2.6,5.8,5.8C236.4,302.1,233.8,304.8,230.6,304.8z
				"/>
			<path class="st4" d="M234.8,298.9c0,2.3-1.9,4.2-4.2,4.2c-2.3,0-4.2-1.9-4.2-4.2s1.9-4.2,4.2-4.2S234.8,296.6,234.8,298.9z"/>
		</g>
		<g>
			<circle class="st5" cx="302.8" cy="301.9" r="4.5"/>
			<circle class="st4" cx="302.8" cy="301.9" r="3.3"/>
		</g>
		<g>
			
				<ellipse transform="matrix(0.1602 -0.9871 0.9871 0.1602 -180.1623 472.8446)" class="st5" cx="187.8" cy="342.3" rx="4.5" ry="4.5"/>
			<path class="st4" d="M191.1,342.3c0,1.8-1.5,3.3-3.3,3.3s-3.3-1.5-3.3-3.3s1.5-3.3,3.3-3.3S191.1,340.5,191.1,342.3z"/>
		</g>
		<g>
			<path class="st5" d="M251.3,217.4c-3.2,0-5.8-2.6-5.8-5.8c0-3.2,2.6-5.8,5.8-5.8c3.2,0,5.8,2.6,5.8,5.8
				C257.1,214.8,254.5,217.4,251.3,217.4z"/>
			<path class="st4" d="M255.5,211.6c0,2.3-1.9,4.2-4.2,4.2c-2.3,0-4.2-1.9-4.2-4.2c0-2.3,1.9-4.2,4.2-4.2
				C253.7,207.4,255.5,209.3,255.5,211.6z"/>
		</g>
		<g>
			<path class="st5" d="M240.6,75.4c-3.2,0-5.8-2.6-5.8-5.8s2.6-5.8,5.8-5.8c3.2,0,5.8,2.6,5.8,5.8
				C246.5,72.8,243.9,75.4,240.6,75.4z"/>
			<path class="st4" d="M244.9,69.6c0,2.3-1.9,4.2-4.2,4.2c-2.3,0-4.2-1.9-4.2-4.2s1.9-4.2,4.2-4.2S244.9,67.3,244.9,69.6z"/>
		</g>
		<g>
			<path class="st5" d="M192.6,9.6c-2.6,0-4.8-2.2-4.8-4.8c0-2.6,2.2-4.8,4.8-4.8s4.8,2.2,4.8,4.8S195.2,9.6,192.6,9.6z"/>
			<path class="st4" d="M196.1,4.8c0,1.9-1.6,3.5-3.5,3.5s-3.5-1.6-3.5-3.5s1.6-3.5,3.5-3.5S196.1,2.9,196.1,4.8z"/>
		</g>
		<g>
			<path class="st5" d="M93.9,181.8c-3.3,0-6.1-2.7-6.1-6.1c0-3.3,2.7-6.1,6.1-6.1c3.3,0,6.1,2.7,6.1,6.1
				C100,179,97.3,181.8,93.9,181.8z"/>
			<path class="st4" d="M98.3,175.7c0,2.4-2,4.4-4.4,4.4s-4.4-2-4.4-4.4s2-4.4,4.4-4.4S98.3,173.3,98.3,175.7z"/>
		</g>
	</g>
</g>
</svg>
