<?xml version="1.0" encoding="utf-8"?>
<!-- Generator: Adobe Illustrator 24.1.1, SVG Export Plug-In . SVG Version: 6.00 Build 0)  -->
<svg version="1.1" id="Layer_1" xmlns="http://www.w3.org/2000/svg" xmlns:xlink="http://www.w3.org/1999/xlink" x="0px" y="0px"
	 viewBox="0 0 512 512" style="enable-background:new 0 0 512 512;" xml:space="preserve">
<path id="Icon_material-network-check" d="M329.5,118.1c-3.2,0-6.1,1.7-7.8,4.4l-1.3,2.9l-98.9,222.4c-3.2,5.6-4.9,11.9-5,18.3
	c0.2,21.2,17.6,38.2,38.7,38c17.8-0.2,33.2-12.6,37.1-30l0.2-0.6L339,127.7c0.1-5.2-4.1-9.5-9.3-9.6
	C329.6,118.1,329.6,118.1,329.5,118.1z M45,194.5l38.2,38.2c52.7-52.8,126.9-78.4,201-69.1l22.7-51.1
	C211.4,95.2,113.6,125.9,45,194.5z M426.8,232.7l38.2-38.2c-30.2-30.2-66.6-53.5-106.7-68.1l-10.1,53.8
	C377.6,192.3,404.3,210.1,426.8,232.7z M350.4,309l38.2-38.2c-14.8-14.8-32-26.9-50.8-36.1l-10.5,55.8
	C335.7,295.8,343.4,302,350.4,309z M121.4,270.8l38.2,38.2c20.8-20.7,47.8-34.1,76.9-38.2l24.4-55
	C208.8,214.1,158.3,234,121.4,270.8z" fill="#eb8919"/>
</svg>
