<?xml version="1.0" encoding="utf-8"?>
<!-- Generator: Adobe Illustrator 24.1.1, SVG Export Plug-In . SVG Version: 6.00 Build 0)  -->
<svg version="1.1" id="Layer_1" xmlns="http://www.w3.org/2000/svg" xmlns:xlink="http://www.w3.org/1999/xlink" x="0px" y="0px"
	 viewBox="0 0 512 512" style="enable-background:new 0 0 512 512;" xml:space="preserve">
<path d="M462,255.2c0-111.3-88-202.3-198.2-207c-1.6,0-3.1,0-4.7,0h-0.5c-1,0-2.1,0-3.1,0c-1,0-2.1,0-3.1,0h-0.5c-1.6,0-3.1,0-4.7,0
	C136,52.9,48,144,48,255.2c0,110.7,87.5,201.3,197.2,207c2.1,0,4.1,0.5,5.7,0.5c0.5,0,0.5,0,1,0c1,0,2.1,0,3.1,0s2.1,0,3.1,0
	c0.5,0,0.5,0,1,0c2.1,0,4.1,0,5.7-0.5C374.5,456.5,462,366,462,255.2z M69.2,265.6h67.3c1,31.6,5.2,60.5,12.9,86.9
	c-14.5,5.2-28.5,10.9-40.4,18.1C85.8,341.1,71.3,304.9,69.2,265.6z M108.5,140.4c11.9,6.7,25.9,12.9,40.4,18.1
	c-7.8,25.9-11.9,55.4-12.9,86.9H68.7C71.3,205.6,85.8,169.3,108.5,140.4z M440.8,244.9H374c-1-30.5-5.2-59.5-12.4-85.4
	c15-4.7,29-10.9,41.4-17.6C425.3,170.9,438.7,206.6,440.8,244.9z M353.3,244.9h-88V175c26.4-0.5,52.3-3.6,76.1-9.3
	C348.1,189.5,352.3,216.4,353.3,244.9z M265.4,154.3V69.5c27.9,4.1,53.3,33.1,69.3,76.1C313,150.7,289.7,153.8,265.4,154.3z
	 M244.6,69.5v84.9c-24.3-1-47.6-4.1-68.8-9.3C191.9,102.1,216.7,73.1,244.6,69.5z M244.6,175v69.9h-88c1-29,5.2-56.4,12.4-80.7
	C192.9,170.4,218.3,174,244.6,175z M156.7,265.6h88v69.9c-26.4,1-51.8,4.7-75.6,10.9C161.9,322,157.7,294.6,156.7,265.6z
	 M244.6,356.7v84.9c-27.9-3.6-52.8-32.6-68.8-75C197,360.8,220.3,357.2,244.6,356.7z M265.4,441v-84.9c24.3,0.5,47.6,3.6,69.3,8.8
	C318.7,407.9,293.3,436.9,265.4,441z M265.4,335.5v-69.9h88c-1,28.5-5.2,55.4-11.9,79.7C317.6,339.6,291.7,336,265.4,335.5z
	 M374,265.6h67.3c-2.1,38.3-16,74-37.8,102.5c-12.4-6.7-26.4-12.4-41.4-17.6C368.9,325.1,373,296.6,374,265.6z M389,126.4
	c-10.4,5.2-21.7,9.8-34.2,14c-8.8-23.3-19.7-43.5-32.6-58.5C347.6,91.7,370.4,106.7,389,126.4z M187.7,81.4
	c-12.9,15-23.8,34.2-32.1,56.9c-11.9-4.1-22.8-8.8-33.1-14C140.6,105.7,162.9,91.2,187.7,81.4z M122.5,386.2
	c9.8-5.2,21.2-10.4,33.1-14c8.3,22.8,19.1,41.9,32.1,56.9C162.9,419.3,140.6,404.8,122.5,386.2z M322.3,429.1
	c12.9-15,24.3-35.2,32.6-58.5c12.4,4.1,23.8,8.3,34.2,14C370.4,403.8,347.6,418.8,322.3,429.1z" fill="#eb8919"/>
</svg>
