<?xml version="1.0" encoding="utf-8"?>
<!-- Generator: Adobe Illustrator 24.1.1, SVG Export Plug-In . SVG Version: 6.00 Build 0)  -->
<svg version="1.1" id="Layer_1" xmlns="http://www.w3.org/2000/svg" xmlns:xlink="http://www.w3.org/1999/xlink" x="0px" y="0px"
	 viewBox="0 0 512 512" style="enable-background:new 0 0 512 512;" xml:space="preserve">
<style type="text/css">
	.st0{fill-rule:evenodd;clip-rule:evenodd;}
</style>
<g>
	<path class="st0" d="M273.9,84.7c28.1,31.5,81,49.5,122.6,42.7l22.5-3.4v136.1c0,50.6-12.4,94.5-54,128.2
		c-29.2,22.5-64.1,34.9-94.5,56.2l-11.2,7.9l-11.2-7.9c-30.4-21.4-65.2-33.7-94.5-56.2c-41.6-33.7-55.1-77.6-55.1-128.2V124.1
		l22.5,3.4c41.6,6.7,94.5-11.2,123.7-42.7L259.3,69L273.9,84.7z M259.3,332.2c-5.6,1.1-11.2,3.4-16.9,4.5v-21.4
		c0-24.7-68.6-24.7-68.6,0v2.2c11.2,5.6,28.1,6.7,39.4,5.6c10.1-1.1,12.4,11.2,6.7,16.9c-21.4,1.1-43.9-2.2-64.1-9v-48.4
		c0-51.7,88.9-56.2,103.5-13.5c14.6-42.7,102.4-38.2,102.4,13.5v48.4c-20.2,6.7-41.6,10.1-64.1,9c-5.6-5.6-2.2-18,7.9-16.9
		c10.1,1.1,27,0,38.2-5.6v-2.2c0-24.7-68.6-24.7-68.6,0v21.4C269.4,335.6,263.8,333.3,259.3,332.2z M309.9,181.5
		c14.6,0,25.9,12.4,25.9,27c0,14.6-11.2,25.9-25.9,25.9c-14.6,0-27-11.2-27-25.9C282.9,193.9,295.3,181.5,309.9,181.5z M309.9,254.6
		c-10.1,0-18,7.9-18,18c0,9,7.9,16.9,18,16.9c9,0,16.9-7.9,16.9-16.9C326.8,262.5,318.9,254.6,309.9,254.6z M208.6,181.5
		c14.6,0,25.9,12.4,25.9,27c0,14.6-11.2,25.9-25.9,25.9c-14.6,0-27-11.2-27-25.9C181.7,193.9,194,181.5,208.6,181.5z M208.6,254.6
		c9,0,16.9,7.9,16.9,18c0,9-7.9,16.9-16.9,16.9c-10.1,0-18-7.9-18-16.9C190.7,262.5,198.5,254.6,208.6,254.6z M259.3,98.2v151.8
		c-6.7-7.9-15.7-12.4-24.7-15.7c6.7-6.7,10.1-15.7,10.1-25.9c0-20.2-15.7-37.1-36-37.1s-37.1,16.9-37.1,37.1
		c0,10.1,4.5,19.1,11.2,25.9c-21.4,6.7-37.1,23.6-37.1,48.4v56.2l6.7,2.2c34.9,11.2,72,12.4,106.9,1.1v86.6
		c60.7-42.7,140.6-49.5,140.6-168.7V146.6C351.5,154.5,291.9,134.2,259.3,98.2z" fill="#eb8919"/>
</g>
</svg>
