<?xml version="1.0" encoding="utf-8"?>
<!-- Generator: Adobe Illustrator 24.1.1, SVG Export Plug-In . SVG Version: 6.00 Build 0)  -->
<svg version="1.1" id="Layer_1" xmlns="http://www.w3.org/2000/svg" xmlns:xlink="http://www.w3.org/1999/xlink" x="0px" y="0px"
	 viewBox="0 0 512 512" style="enable-background:new 0 0 512 512;" xml:space="preserve">
<path d="M343.4,324.9c2.9,2.9,7.5,2.9,10.4,0c2.9-2.9,2.9-7.5,0-10.4c-0.8-0.8-11.2-11.2-24.6-14.2v-4.6c0-4.2-3.3-7.5-7.5-7.5
	c-4.2,0-7.5,3.3-7.5,7.1v5l0,0c-12.9,3.3-22.1,15.4-22.1,28.7s8.7,25.4,22.1,28.7v28.7h-0.4c-5.8-2.9-11.2-8.3-13.3-10.8
	c-2.5-2.9-7.5-3.3-10.4-0.8c-2.9,2.5-3.3,7.5-0.8,10.4c0.8,1.7,12.1,13.3,24.6,17.5v5c0,4.2,3.3,7.5,7.5,7.5c4.2,0,7.5-3.3,7.5-7.5
	v-4.6l0,0c13.3-3.3,22.9-15.4,22.9-29.2c0-13.7-9.6-25.8-22.9-29.2v-29.6h0.4C335.5,317.8,341.3,322.8,343.4,324.9z M337.1,373.6
	c0,5.4-2.9,10.4-7.5,12.9h-0.4v-26.2h0.4C334.2,363.6,337.1,368.6,337.1,373.6z M307.1,328.6c0-5,2.5-10,7.1-12.9h0.4v25.8h-0.4
	C309.6,338.6,307.1,334.1,307.1,328.6z" fill="#eb8919"/>
<rect x="135.1" y="171.6" width="110.4" height="25.8" fill="#eb8919"/>
<rect x="134.3" y="369.9" width="52.9" height="25.8" fill="#eb8919"/>
<rect x="134.3" y="304.1" width="52.1" height="25.4" fill="#eb8919"/>
<rect x="134.7" y="241.2" width="78.7" height="24.2" fill="#eb8919"/>
<path d="M393.8,254.9V130l-70.4-70.8H71.8v406.5h234.5c5,0.8,10.4,1.2,15.4,1.2c65.4,0,118.3-53.3,118.3-118.3
	C440,310.7,422.1,276.6,393.8,254.9z M315.9,80l56.6,56.6h-56.6V80z M95.6,442.8V83.3h201.6v73.3h73.3v84.1
	c-15-6.7-31.2-10.4-48.3-10.4c-65.4,0-118.3,53.3-118.3,118.3c0,38.3,18.3,72.5,46.6,94.1H95.6z M321.7,445.3
	c-53.3,0-96.6-43.3-96.6-96.6s43.3-96.6,96.6-96.6c53.3,0.4,96.6,43.3,96.6,96.6S375,445.3,321.7,445.3z" fill="#eb8919"/>
</svg>
