<?xml version="1.0" encoding="utf-8"?>
<!-- Generator: Adobe Illustrator 24.1.1, SVG Export Plug-In . SVG Version: 6.00 Build 0)  -->
<svg version="1.1" id="Layer_1" xmlns="http://www.w3.org/2000/svg" xmlns:xlink="http://www.w3.org/1999/xlink" x="0px" y="0px"
	 viewBox="0 0 1417.3 425.2" style="enable-background:new 0 0 1417.3 425.2;" xml:space="preserve">
<style type="text/css">
	.st0{fill:#101827;}
	.st1{fill:#FFFFFF;}
</style>
<rect x="-0.2" y="0.8" class="st0" width="1417.3" height="425.2"/>
<g>
	<g>
		<path class="st1" d="M350.5,299.3c-0.2,0-0.4-0.1-0.6-0.3c-0.2-0.2-0.3-0.4-0.3-0.6V156.2h-29.4c-4,0-7.6,1.5-10.7,4.5
			L170.2,299.1c-0.2,0.1-0.4,0.2-0.7,0.2h-44.1c-0.6,0-0.8-0.3-0.9-0.5c-0.2-0.4-0.1-0.7,0.2-1L282,140.5c9.1-8.6,19.5-13,31.1-13
			h69c0.3,0,0.6,0.1,0.8,0.3c0.2,0.2,0.3,0.4,0.3,0.8v169.9c0,0.2-0.1,0.4-0.3,0.6c-0.2,0.2-0.4,0.3-0.8,0.3H350.5z"/>
		<path d="M382.1,128c0.2,0,0.4,0.1,0.4,0.1c0.1,0.1,0.1,0.2,0.1,0.4v169.9c0,0,0,0.1-0.1,0.2c-0.1,0.1-0.2,0.1-0.4,0.1h-31.6
			c0,0-0.1,0-0.2-0.1c-0.1-0.1-0.1-0.2-0.1-0.2V156.7v-1h-1h-28.9c-4.2,0-7.9,1.5-11.1,4.6L169.9,298.7c-0.1,0.1-0.3,0.1-0.4,0.1
			h-44.1c-0.4,0-0.4-0.1-0.5-0.2c-0.1-0.2-0.1-0.3,0.1-0.5l157.3-157.3c9-8.5,19.3-12.9,30.8-12.9H382.1 M382.1,127h-69
			c-11.8,0-22.2,4.4-31.5,13.1L124.4,297.4c-0.5,0.5-0.6,1-0.3,1.6c0.2,0.6,0.7,0.9,1.4,0.9h44.1c0.3,0,0.7-0.1,1-0.3L309.9,161
			c3-2.9,6.5-4.3,10.4-4.3h28.9v141.7c0,0.3,0.1,0.7,0.4,1c0.3,0.3,0.6,0.4,1,0.4h31.6c0.5,0,0.8-0.1,1.1-0.4c0.3-0.3,0.4-0.6,0.4-1
			V128.5c0-0.5-0.1-0.8-0.4-1.1C383,127.1,382.6,127,382.1,127L382.1,127z"/>
	</g>
	<g>
		<path class="st1" d="M645,299.3c-0.3,0-0.6-0.1-1-0.6l-26.7-56.1H469.6v55.8c0,0.2-0.1,0.4-0.3,0.6c-0.2,0.2-0.4,0.3-0.8,0.3
			h-31.6c-0.2,0-0.4-0.1-0.6-0.3c-0.2-0.2-0.3-0.4-0.3-0.6V128.5c0-0.3,0.1-0.6,0.3-0.8c0.2-0.2,0.4-0.3,0.6-0.3h196.2
			c13.4,0,25,4.8,34.5,14.3c9.5,9.5,14.3,21.1,14.3,34.6v17.3c0,9.9-2.6,18.9-7.9,26.8c-5.2,7.9-12.2,13.9-20.9,17.7l-0.5,0.2
			l0.9,1.8l27.5,57.7c0.1,0.3,0,0.7-0.1,1c-0.1,0.2-0.3,0.4-0.8,0.4H645z M469.6,213.9h163.5c4.2,0,7.8-1.5,10.7-4.5
			c3-3,4.5-6.6,4.5-10.9v-27.1c0-4.1-1.5-7.8-4.5-10.7c-3-3-6.6-4.5-10.7-4.5H469.6V213.9z"/>
		<path d="M633.1,128c13.3,0,24.7,4.8,34.1,14.1c9.4,9.4,14.1,20.9,14.1,34.3v17.3c0,9.8-2.6,18.7-7.8,26.5
			c-5.2,7.8-12.1,13.7-20.7,17.5l-1,0.4l0.5,0.9l0.7,1.4l27.4,57.6c0,0.2,0,0.4-0.1,0.6c0,0.1-0.1,0.1-0.3,0.1H645
			c-0.1,0-0.3,0-0.5-0.3l-26.6-55.8l-0.3-0.6H617H470.1h-1v1v55.3c0,0,0,0.1-0.1,0.2c-0.1,0.1-0.2,0.1-0.4,0.1h-31.6
			c0,0-0.1,0-0.2-0.1c-0.1-0.1-0.1-0.2-0.1-0.2V128.5c0-0.2,0.1-0.3,0.1-0.4c0.1-0.1,0.2-0.1,0.2-0.1H633.1 M469.1,214.4h1h163
			c4.3,0,8-1.6,11.1-4.6c3.1-3.1,4.6-6.8,4.6-11.3v-27.1c0-4.3-1.6-8-4.6-11.1c-3.1-3.1-6.8-4.6-11.1-4.6h-163h-1v1v56.7V214.4
			 M633.1,127H436.9c-0.3,0-0.7,0.1-1,0.4c-0.3,0.3-0.4,0.7-0.4,1.1v169.9c0,0.3,0.1,0.7,0.4,1c0.3,0.3,0.6,0.4,1,0.4h31.6
			c0.5,0,0.8-0.1,1.1-0.4c0.3-0.3,0.4-0.6,0.4-1v-55.3H617l26.6,55.8c0.3,0.6,0.8,0.9,1.4,0.9h35.1c0.6,0,1-0.2,1.2-0.7
			c0.2-0.5,0.3-0.9,0.2-1.4L654,240l-0.7-1.4c8.8-3.9,15.8-9.9,21.1-17.9c5.3-8,8-17,8-27.1v-17.3c0-13.7-4.8-25.4-14.4-35
			C658.3,131.8,646.7,127,633.1,127L633.1,127z M470.1,213.4v-56.7h163c4,0,7.5,1.4,10.4,4.3c2.9,2.9,4.3,6.3,4.3,10.4v27.1
			c0,4.1-1.4,7.7-4.3,10.5c-2.9,2.9-6.3,4.3-10.4,4.3H470.1L470.1,213.4z"/>
	</g>
	<g>
		<path class="st1" d="M783.6,299.3c-13.5,0-25.2-4.8-34.6-14.3c-9.5-9.5-14.3-21.1-14.3-34.6v-74c0-13.5,4.8-25.2,14.3-34.6
			c9.5-9.5,21.1-14.3,34.6-14.3h196c0.3,0,0.6,0.1,0.8,0.3c0.2,0.2,0.3,0.4,0.3,0.8v26.6c0,0.2-0.1,0.4-0.3,0.6
			c-0.2,0.2-0.4,0.3-0.8,0.3h-196c-4.3,0-7.9,1.5-10.9,4.6c-3,3-4.5,6.7-4.5,10.8v84c0,4.2,1.5,7.8,4.5,10.8c3,3,6.6,4.6,10.9,4.6
			h196c0.3,0,0.6,0.1,0.8,0.3c0.3,0.3,0.3,0.5,0.3,0.6v26.6c0,0.3-0.1,0.6-0.3,0.8c-0.2,0.2-0.4,0.3-0.8,0.3H783.6z"/>
		<path d="M979.6,128c0.2,0,0.4,0.1,0.4,0.1c0.1,0.1,0.1,0.2,0.1,0.4v26.6c0,0,0,0.1-0.1,0.2c-0.1,0.1-0.2,0.1-0.4,0.1h-196
			c-4.4,0-8.2,1.6-11.3,4.7c-3.1,3.1-4.6,6.9-4.6,11.2v84c0,4.3,1.6,8,4.6,11.2c3.1,3.1,6.8,4.7,11.3,4.7h196c0.2,0,0.4,0.1,0.4,0.1
			c0.1,0.1,0.1,0.2,0.1,0.2v26.6c0,0.2-0.1,0.4-0.1,0.4c-0.1,0.1-0.2,0.1-0.4,0.1h-196c-13.4,0-24.9-4.8-34.3-14.1
			c-9.4-9.4-14.1-20.9-14.1-34.3v-74c0-13.4,4.8-24.9,14.1-34.3c9.4-9.4,20.9-14.1,34.3-14.1H979.6 M979.6,127h-196
			c-13.7,0-25.4,4.8-35,14.4c-9.6,9.6-14.4,21.3-14.4,35v74c0,13.7,4.8,25.4,14.4,35c9.6,9.6,21.3,14.4,35,14.4h196
			c0.5,0,0.8-0.1,1.1-0.4c0.3-0.3,0.4-0.7,0.4-1.1v-26.6c0-0.3-0.1-0.7-0.4-1c-0.3-0.3-0.7-0.4-1.1-0.4h-196
			c-4.1,0-7.7-1.5-10.5-4.4c-2.9-2.9-4.3-6.4-4.3-10.5v-84c0-4,1.4-7.5,4.3-10.5c2.9-2.9,6.4-4.4,10.5-4.4h196
			c0.5,0,0.8-0.1,1.1-0.4c0.3-0.3,0.4-0.6,0.4-1v-26.6c0-0.5-0.1-0.8-0.4-1.1C980.5,127.1,980.1,127,979.6,127L979.6,127z"/>
	</g>
	<g>
		<path class="st1" d="M1247.4,299.3c-0.2,0-0.5-0.1-0.8-0.3l-139.2-138.4c-3.1-3-6.7-4.5-10.7-4.5h-29.4v142.2
			c0,0.2-0.1,0.4-0.3,0.6c-0.2,0.2-0.4,0.3-0.6,0.3h-31.6c-0.3,0-0.6-0.1-0.8-0.3c-0.2-0.2-0.3-0.4-0.3-0.6V128.5
			c0-0.3,0.1-0.6,0.3-0.8c0.2-0.2,0.4-0.3,0.8-0.3h69c11.6,0,22,4.4,31.1,13l157.3,157.3c0.3,0.3,0.4,0.6,0.2,1
			c-0.1,0.3-0.3,0.6-0.9,0.6H1247.4z"/>
		<path d="M1103.8,128c11.4,0,21.8,4.3,30.8,12.8l157.3,157.3c0.2,0.2,0.2,0.3,0.1,0.5c0,0.1-0.1,0.2-0.5,0.2h-44.1
			c-0.1,0-0.3,0-0.4-0.1l-139.2-138.4c-3.2-3.1-6.9-4.6-11.1-4.6h-28.9h-1v1v141.7c0,0,0,0.1-0.1,0.2c-0.1,0.1-0.2,0.1-0.2,0.1
			h-31.6c-0.2,0-0.3-0.1-0.4-0.1c-0.1-0.1-0.1-0.2-0.1-0.2V128.5c0-0.2,0.1-0.4,0.1-0.4c0.1-0.1,0.2-0.1,0.4-0.1H1103.8 M1103.8,127
			h-69c-0.5,0-0.8,0.1-1.1,0.4c-0.3,0.3-0.4,0.7-0.4,1.1v169.9c0,0.3,0.1,0.7,0.4,1c0.3,0.3,0.7,0.4,1.1,0.4h31.6
			c0.3,0,0.7-0.1,1-0.4c0.3-0.3,0.4-0.6,0.4-1V156.7h28.9c3.9,0,7.4,1.4,10.4,4.3l139.3,138.4c0.3,0.2,0.7,0.3,1,0.3h44.1
			c0.7,0,1.2-0.3,1.4-0.9c0.2-0.6,0.1-1.1-0.3-1.6l-157.3-157.3C1126,131.4,1115.5,127,1103.8,127L1103.8,127z"/>
	</g>
</g>
</svg>
