<?xml version="1.0" encoding="utf-8"?>
<!-- Generator: Adobe Illustrator 24.1.1, SVG Export Plug-In . SVG Version: 6.00 Build 0)  -->
<svg version="1.1" id="Layer_1" xmlns="http://www.w3.org/2000/svg" xmlns:xlink="http://www.w3.org/1999/xlink" x="0px" y="0px"
	 viewBox="0 0 510.2 345.5" style="enable-background:new 0 0 510.2 345.5;" xml:space="preserve">
<g transform="translate(0,-972.36218)">
	<path d="M255.1,972.4c140.5,0,255.1,114.4,255.1,255.1c0,25.3-3.6,49.6-10.6,72.8c-3.1,10.5-12.7,17.7-23.7,17.7H34.3
		c-11,0-20.6-7.2-23.7-17.7C3.6,1277,0,1252.8,0,1227.5C0.1,1086.8,114.6,972.4,255.1,972.4z M279.8,1023.3v6.7
		c0,13.7-11,24.7-24.7,24.7c-13.7,0-24.7-11-24.7-24.7v-6.7c-38.5,4.6-73.4,19.6-102.4,42.2l4.8,4.8c9.6,9.6,9.6,25.3,0,35
		s-25.3,9.6-35,0l-4.8-4.8c-22.6,28.8-37.6,63.9-42.2,102.4h6.7c13.7,0,24.7,11,24.7,24.7c0,13.7-11,24.7-24.7,24.7h-6.4
		c0.8,5.5,1.7,11,2.8,16.5h402.2c1.1-5.4,2-11,2.8-16.5h-6.4c-13.7,0-24.7-11-24.7-24.7c0-13.7,11-24.7,24.7-24.7h6.7
		c-4.6-38.5-19.6-73.4-42.2-102.4l-4.8,4.8c-9.6,9.6-25.3,9.6-35,0c-9.6-9.6-9.6-25.3,0-35l4.8-4.8
		C353.3,1042.7,318.2,1027.8,279.8,1023.3z M168,1123.8l78.4,47c13.1-2.8,27.6,0.8,37.8,11.1c16.1,16.1,16.1,42.1,0,58.1
		s-42.1,16.1-58.1,0c-10.2-10.2-13.9-24.7-11.1-37.8L168,1123.8z" fill="#696969"/>
</g>
</svg>
