<?xml version="1.0" encoding="utf-8"?>
<!-- Generator: Adobe Illustrator 24.1.1, SVG Export Plug-In . SVG Version: 6.00 Build 0)  -->
<svg version="1.1" id="Layer_1" xmlns="http://www.w3.org/2000/svg" xmlns:xlink="http://www.w3.org/1999/xlink" x="0px" y="0px"
	 viewBox="0 0 512 512" style="enable-background:new 0 0 512 512;" xml:space="preserve">
<g transform="translate(0,-972.36218)">
	<path d="M256.9,1105.5c104.9,0,190.4,85.4,190.4,190.4c0,18.9-2.7,37-7.9,54.3c-2.3,7.8-9.5,13.2-17.7,13.2H92.1
		c-8.2,0-15.4-5.4-17.7-13.2c-5.2-17.3-7.9-35.4-7.9-54.3C66.6,1190.9,152,1105.5,256.9,1105.5z M275.3,1143.5v5
		c0,10.2-8.2,18.4-18.4,18.4c-10.2,0-18.4-8.2-18.4-18.4v-5c-28.7,3.4-54.8,14.6-76.4,31.5l3.6,3.6c7.2,7.2,7.2,18.9,0,26.1
		c-7.2,7.2-18.9,7.2-26.1,0l-3.6-3.6c-16.9,21.5-28.1,47.7-31.5,76.4h5c10.2,0,18.4,8.2,18.4,18.4c0,10.2-8.2,18.4-18.4,18.4h-4.8
		c0.6,4.1,1.3,8.2,2.1,12.3H407c0.8-4,1.5-8.2,2.1-12.3h-4.8c-10.2,0-18.4-8.2-18.4-18.4c0-10.2,8.2-18.4,18.4-18.4h5
		c-3.4-28.7-14.6-54.8-31.5-76.4l-3.6,3.6c-7.2,7.2-18.9,7.2-26.1,0c-7.2-7.2-7.2-18.9,0-26.1l3.6-3.6
		C330.2,1158,304,1146.9,275.3,1143.5z M191.9,1218.5l58.5,35.1c9.8-2.1,20.6,0.6,28.2,8.3c12,12,12,31.4,0,43.4
		c-12,12-31.4,12-43.4,0c-7.6-7.6-10.4-18.4-8.3-28.2L191.9,1218.5z" fill="#696969"/>
</g>
</svg>
