<?xml version="1.0" encoding="utf-8"?>
<!-- Generator: Adobe Illustrator 24.1.1, SVG Export Plug-In . SVG Version: 6.00 Build 0)  -->
<svg version="1.1" id="Layer_1" xmlns="http://www.w3.org/2000/svg" xmlns:xlink="http://www.w3.org/1999/xlink" x="0px" y="0px"
	 viewBox="0 0 512 512" style="enable-background:new 0 0 512 512;" xml:space="preserve">
<style type="text/css">
	.st0{fill-rule:evenodd;clip-rule:evenodd;}
</style>
<g>
	<path class="st0" d="M342,418h-52l-31-225c14-2,25-14,25-29c0-17-13-30-29-30c-17,0-30,13-30,30c0,15,12,27,26,29l-31,225h-52
		c-29,0-30,45,0,45h174C371,463,371,418,342,418z" fill="#696969"/>
	<path class="st0" d="M187,204l15-15c-20-20-20-53,0-73l-15-15C158,130,158,176,187,204z" fill="#696969"/>
	<path class="st0" d="M160,232l15-16c-35-35-35-92,0-127l-15-15C116,118,116,188,160,232z" fill="#696969"/>
	<path class="st0" d="M149,63l-16-15c-57,58-57,152,0,210l15-15C99,193,99,113,149,63z" fill="#696969"/>
	<path class="st0" d="M323,204c29-28,29-74,0-103l-15,15c20,20,20,53,0,73L323,204z" fill="#696969"/>
	<path class="st0" d="M335,216l15,16c43-44,43-114,0-158l-15,15C370,124,370,181,335,216z" fill="#696969"/>
	<path class="st0" d="M376,258l-15-15c50-50,50-130,0-180l15-15C434,106,434,200,376,258z" fill="#696969"/>
</g>
</svg>
