<?xml version="1.0" encoding="utf-8"?>
<!-- Generator: Adobe Illustrator 24.1.1, SVG Export Plug-In . SVG Version: 6.00 Build 0)  -->
<svg version="1.1" id="Layer_1" xmlns="http://www.w3.org/2000/svg" xmlns:xlink="http://www.w3.org/1999/xlink" x="0px" y="0px"
	 viewBox="0 0 512 512" style="enable-background:new 0 0 512 512;" xml:space="preserve">
<path d="M428.6,287.9c2.2-10.3,2.9-21.3,2.9-32.4s-1.5-22.1-2.9-33.1c30.2-21.3,50-41.9,43.4-57.4c-5.9-14-29.4-16.9-72.1-9.6
	C368.3,109.1,315.3,79,255,79s-114,30.9-145.6,77.2c-41.9-7.4-65.5-4.4-71.3,9.6c-6.6,15.4,13.2,36,43.4,57.4
	c-2.2,10.3-2.9,21.3-2.9,32.4s0.7,21.3,2.9,31.6c-35.3,25-50,43.4-44.1,58.1c3.7,9.6,14.7,14,33.8,14c11,0,23.5-1.5,38.2-4.4
	C141,401.1,194.7,432,255,432s114-30.9,145.6-77.2c14.7,2.9,28,4.4,38.2,4.4c18.4,0,30.2-4.4,33.8-13.2
	C478.6,331.3,464.6,312.9,428.6,287.9z M416.8,248.1h-30.2c9.6-5.9,19.1-11,28-16.9C416.1,237.1,416.8,242.3,416.8,248.1z
	 M393.3,339.4c-16.9-3.7-36-8.8-56.6-14.7c2.9-16.2,5.1-34.6,5.9-53c5.9-2.9,11-5.9,16.9-8.8h57.4
	C415.3,290.8,407.2,316.5,393.3,339.4z M93.2,262.9h55.9c5.9,2.9,12.5,5.9,18.4,9.6c0.7,17.7,2.9,34.6,5.9,51.5
	c-20.6,5.9-39,11-56.6,14.7C102.7,316.5,94.6,290.8,93.2,262.9z M181.4,262.9h146.4c-17.7,8.8-37.5,17.7-59.6,26.5
	c-4.4,2.2-9.6,3.7-14,5.9c-4.4-1.5-8.1-2.9-12.5-5.1C219.7,281.2,199.8,271.7,181.4,262.9L181.4,262.9z M181.4,248.1
	c0.7-28,3.7-53.7,9.6-76.5c21.3,6.6,42.7,10.3,64,10.3s42.7-3.7,64-10.3c5.9,23.5,9.6,50,9.6,76.5H181.4z M182.2,279.8
	c18.4,8.8,36.8,16.9,52.2,23.5c-16.2,5.9-31.6,11.8-47.1,16.9C185.1,306.3,182.9,293,182.2,279.8z M254.2,310.7
	c22.8,8.8,44.9,16.9,65.5,23.5c-0.7,3.7-2.2,8.1-2.9,11.8c-41.2-13.2-82.4-13.2-123.6,0c-1.5-3.7-2.2-8.1-2.9-12.5
	C210.9,326.8,232.2,319.5,254.2,310.7z M274.1,302.6L274.1,302.6c16.2-6.6,34.6-14.7,53.7-24.3c-0.7,14-2.2,28-5.1,41.2
	C307.2,315.1,291,309.2,274.1,302.6z M458,170.9c2.2,5.1-8.8,18.4-33.1,36c-3.7-13.2-8.8-25.7-16.2-37.5
	C445.5,163.6,456.5,168,458,170.9z M411.7,215.8c-14.7,9.6-33.1,20.6-55.2,32.4h-13.2c-0.7-28-4.4-56.6-11-81.6
	c14-5.1,27.2-12.5,41.2-20.6C391.8,165.8,405,189.3,411.7,215.8z M363.1,135.6c-11.8,6.6-23.5,11.8-34.6,16.9
	c-6.6-21.3-16.2-39-28.7-52.2C323.4,106.9,344.7,119.4,363.1,135.6z M255,93.7c27.2,0,47.8,26.5,59.6,64
	c-39.7,13.2-79.4,13.2-119.2,0c1.5-5.1,3.7-10.3,5.9-15.4C210.9,120.2,227.8,93.7,255,93.7z M209.4,100.3
	c-8.8,8.8-16.2,21.3-22.1,36c-2.2,5.1-3.7,10.3-5.9,16.2c-11.8-4.4-22.8-10.3-34.6-17.7C164.5,118.7,185.8,106.9,209.4,100.3z
	 M136.6,145.9c14,8.1,27.2,15.4,41.2,20.6c-6.6,24.3-10.3,52.2-11,81.6H152c-21.3-11-39.7-22.1-53.7-31.6
	C104.9,189.3,118.2,165.8,136.6,145.9z M52,171.6c0.7-2.9,11.8-7.4,48.5-1.5c-6.6,11.8-11.8,24.3-15.4,37.5
	C60.8,190,49.8,176.8,52,171.6z M121.9,248.1H93.2c0-5.1,0.7-11,1.5-16.2C103.5,237.1,112.3,243,121.9,248.1z M50.5,340.1
	c-1.5-2.9,2.9-14.7,34.6-37.5c3.7,13.2,8.8,26.5,16.2,38.2C63.7,347.4,52,343,50.5,340.1z M124.8,351.1c15.4-3.7,33.1-8.1,50.8-13.2
	c0.7,4.4,2.2,8.8,2.9,13.2c-13.2,5.1-25.7,11-38.2,19.1C135.1,364.4,129.9,357.7,124.8,351.1z M152,380.5c11-5.9,21.3-11,31.6-15.4
	c6.6,18.4,15.4,34.6,26.5,45.6C188.8,404.8,168.9,394.5,152,380.5z M255,417.3c-25.7,0-44.9-23.5-57.4-57.4
	c38.2-12.5,76.5-12.5,114.7,0c-0.7,2.9-2.2,5.9-3.7,8.8C299.1,390.8,282.2,417.3,255,417.3z M299.9,411.4c8.8-8.8,16.2-21.3,22.1-36
	c1.5-3.7,2.9-7.4,4.4-10.3c10.3,4.4,21.3,9.6,31.6,15.4C341,394.5,321.9,404.8,299.9,411.4z M369,370.2c-12.5-7.4-25.7-14-38.2-19.1
	c1.5-3.7,2.2-8.1,2.9-12.5c18.4,5.1,35.3,9.6,50.8,13.2C380,358.5,374.9,364.4,369,370.2z M459.5,340.8c-1.5,2.9-13.2,7.4-50.8,1.5
	c6.6-11.8,12.5-25,16.2-39C456.5,326.1,460.9,337.9,459.5,340.8z" fill="#696969"/>
</svg>
