<?xml version="1.0" encoding="utf-8"?>
<!-- Generator: Adobe Illustrator 24.1.1, SVG Export Plug-In . SVG Version: 6.00 Build 0)  -->
<svg version="1.1" id="Layer_1" xmlns="http://www.w3.org/2000/svg" xmlns:xlink="http://www.w3.org/1999/xlink" x="0px" y="0px"
	 viewBox="0 0 512 512" style="enable-background:new 0 0 512 512;" xml:space="preserve">
<g>
	<path d="M427.5,79.7c-5.9-4.8-12.7-7.3-20.3-7.3c-4.6,0-9.2,0-13.8,0c-9.4,0-18.7,0-28.1,0c-12.8,0-25.5,0-38.2,0
		c-14.9,0-29.8,0-44.7,0c-15.6,0-31.2,0-46.8,0c-15.1,0-30.3,0-45.4,0c-13.3,0-26.5,0-39.7,0c-10,0-20,0-30,0c-5.5,0-11,0-16.5,0
		c-1.2,0-2.4,0-3.6,0.1c-7.5,0.8-14.8,3.7-20.1,9.4c-5.1,5.5-7.9,12.4-8.2,19.9c0,0.3,0,0.5,0,0.8c0,3,0,6,0,9.1
		c0,8.2,0,16.3,0,24.5c0,11.9,0,23.8,0,35.8c0,14.4,0,28.9,0,43.4c0,15.5,0,31.1,0,46.6c0,15.4,0,30.8,0,46.2c0,13.9,0,27.8,0,41.7
		c0,11,0,22,0,33c0,6.8,0,13.7,0,20.6c0,1.5,0,2.9,0,4.3c0,8.4,3.3,17,9.7,22.6c5.9,5.2,13.1,7.9,21,7.9c1.6,0,3.1,0,4.7,0
		c7.1,0,14.1,0,21.2,0c11.1,0,22.3,0,33.4,0c14,0,27.9,0,41.9,0c15.4,0,30.7,0,46.1,0c15.6,0,31.1,0,46.7,0c14.4,0,28.8,0,43.1,0
		c11.8,0,23.6,0,35.5,0c8,0,16.1,0,24.1,0c3.3,0,6.8,0.2,10.2-0.1c7.7-0.7,15.3-3.7,20.5-9.6c5-5.7,7.8-12.6,7.9-20.3
		c0-0.8,0-1.7,0-2.5c0-5.9,0-11.7,0-17.6c0-10.3,0-20.6,0-30.9c0-13.4,0-26.7,0-40.1c0-15.2,0-30.4,0-45.6c0-15.6,0-31.2,0-46.8
		c0-14.8,0-29.6,0-44.4c0-12.6,0-25.1,0-37.7c0-9,0-18,0-27c0-4.2,0-8.3,0-12.6C438,94.2,434.3,85.3,427.5,79.7z M411.3,97
		c0,0,0.1,0.1,0.1,0.1C411.3,97,411.2,97,411.3,97C411.2,97,411.2,97,411.3,97z M96.4,99.3c0,0,0.1-0.1,0.1-0.1
		C96.4,99.2,96.4,99.3,96.4,99.3C96.4,99.3,96.4,99.3,96.4,99.3z M98.7,413.8c0,0-0.1-0.1-0.1-0.1C98.6,413.7,98.7,413.8,98.7,413.8
		C98.7,413.8,98.7,413.8,98.7,413.8z M400.3,414.5c-7.4,0-14.7,0-22.1,0c-11,0-22,0-33.1,0c-13.4,0-26.9,0-40.3,0
		c-14.8,0-29.6,0-44.4,0c-15,0-29.9,0-44.8,0c-13.9,0-27.7,0-41.6,0c-11.7,0-23.5,0-35.2,0c-8.3,0-16.7,0-25.1,0
		c-3.8,0-7.6,0-11.5,0c-0.4,0-0.9,0-1.3,0c-0.5-0.1-0.9-0.2-1.4-0.4c-0.5-0.3-1.1-0.6-1.6-0.9c-0.3-0.3-0.5-0.5-0.6-0.6
		c-0.2-0.2-0.4-0.4-0.5-0.6c-0.3-0.5-0.6-0.9-0.8-1.4c-0.2-0.6-0.3-1.1-0.5-1.7c-0.2-2.8,0-5.6,0-8.3c0-7.3,0-14.6,0-21.9
		c0-10.9,0-21.8,0-32.7c0-13.4,0-26.8,0-40.2c0-14.7,0-29.3,0-44c0-14.8,0-29.7,0-44.5c0-13.9,0-27.8,0-41.7c0-11.7,0-23.4,0-35.1
		c0-8.5,0-16.9,0-25.4c0-4,0-8,0-12c0-0.1,0-0.3,0-0.4c0-0.3,0-0.6,0-0.9c0.1-0.5,0.2-1,0.4-1.5c0.3-0.5,0.6-1.1,0.9-1.6
		c0.3-0.3,0.5-0.5,0.6-0.6c0.2-0.2,0.4-0.4,0.6-0.5c0.5-0.3,0.9-0.6,1.4-0.8c0.6-0.2,1.1-0.3,1.7-0.5c2.8-0.2,5.7,0,8.5,0
		c7.4,0,14.7,0,22.1,0c11,0,22,0,33.1,0c13.4,0,26.9,0,40.3,0c14.8,0,29.6,0,44.4,0c15,0,29.9,0,44.8,0c13.9,0,27.7,0,41.6,0
		c11.7,0,23.5,0,35.2,0c8.3,0,16.7,0,25.1,0c3.8,0,7.6,0,11.5,0c0.4,0,0.9,0,1.3,0c0.5,0.1,0.9,0.2,1.4,0.4c0.5,0.3,1.1,0.6,1.6,0.9
		c0.3,0.3,0.5,0.5,0.6,0.6c0.2,0.2,0.4,0.4,0.5,0.6c0.3,0.5,0.6,0.9,0.8,1.4c0.2,0.6,0.3,1.1,0.5,1.7c0.2,2.8,0,5.7,0,8.5
		c0,7.3,0,14.7,0,22c0,11,0,21.9,0,32.9c0,13.5,0,27,0,40.5c0,14.8,0,29.5,0,44.2c0,14.9,0,29.8,0,44.7c0,13.9,0,27.9,0,41.8
		c0,11.7,0,23.3,0,35c0,8.3,0,16.6,0,25c0,3.8,0,7.7,0,11.5c0,0.4,0,0.9,0,1.3c-0.1,0.5-0.2,0.9-0.4,1.4c-0.3,0.5-0.6,1.1-0.9,1.6
		c-0.3,0.3-0.5,0.5-0.6,0.6c-0.2,0.2-0.4,0.4-0.6,0.5c-0.5,0.3-0.9,0.6-1.4,0.8c-0.6,0.2-1.1,0.3-1.7,0.5
		C405.9,414.7,403.1,414.5,400.3,414.5z M413.6,411.5c0,0-0.1,0.1-0.1,0.1C413.5,411.5,413.5,411.5,413.6,411.5
		C413.6,411.4,413.6,411.5,413.6,411.5z" fill="#eb8919"/>
	<path d="M396.1,228.7c0-14,0-28,0-42.1c0-12.1,0-24.1,0-36.2c0-5.9,0.1-11.8,0-17.7c0-0.1,0-0.2,0-0.2c0-6.4-5.4-11.8-11.8-11.8
		c-8.6,0-17.2,0-25.9,0c-13.5,0-27.1,0-40.6,0c-0.3,0-0.6,0-0.9,0c-14,0-28,0-42.1,0c-6.4,0-12.8,0-19.1,0c-0.3,0-0.5,0-0.8,0
		c-15.6,0-31.1,0-46.6,0c-5.1,0-10.2,0-15.3,0c-0.3,0-0.6,0-0.9,0c-11.4,0-22.9,0-34.3,0c-10.5,0-20.9-0.2-31.4,0
		c-0.2,0-0.3,0-0.5,0c-6.4,0-11.8,5.4-11.8,11.8c0,4.8,0,9.7,0,14.5c0,11.5,0,23.1,0,34.6c0,14,0,28,0,42.1c0,12.1,0,24.1,0,36.2
		c0,5.9-0.1,11.8,0,17.7c0,0.1,0,0.2,0,0.2c0,6.4,5.4,11.8,11.8,11.8c8,0,16,0,24,0c0,10.4,0,20.9,0,31.3c0,2.1,0,4.2,0,6.2
		c0,6.4,5.4,11.8,11.8,11.8c9.4,0,18.9,0,28.3,0c0,11.1,0,22.1,0,33.1c0,2.1,0,4.2,0,6.3c0,6.4,5.4,11.8,11.8,11.8c12,0,24,0,36,0
		c19.1,0,38.2,0,57.3,0c4.4,0,8.7,0,13.1,0c6.4,0,11.8-5.4,11.8-11.8c0-13.2,0-26.3,0-39.5c7.9,0,15.8,0,23.7,0c1.7,0,3.3,0,5,0
		c6.4,0,11.8-5.4,11.8-11.8c0-12.5,0-25,0-37.5c6.4,0,12.8,0,19.2,0c1.2,0,2.4,0,3.6,0c0.3,0,0.5,0,0.8,0c0,0,0,0,0,0
		c6.2,0,12.1-5.4,11.8-11.8c0-0.2,0-0.4,0-0.5c0-4.7,0-9.3,0-13.9C396.1,251.7,396.1,240.2,396.1,228.7z M272.4,366.6
		c-19.1,0-38.2,0-57.3,0c-0.4,0-0.9,0-1.3,0c0-11.1,0-22.1,0-33.1c0-2.1,0-4.2,0-6.3c0-6.4-5.4-11.8-11.8-11.8c-9.4,0-18.9,0-28.3,0
		c0-10.4,0-20.9,0-31.3c0-2.1,0-4.2,0-6.2c0-6.4-5.4-11.8-11.8-11.8c-8,0-16,0-24,0c0-0.9,0-1.8,0-2.7c0-11.5,0-23.1,0-34.6
		c0-14,0-28,0-42.1c0-12.1,0-24.1,0-36.2c0-2,0-4.1,0-6.1c4.7,0,9.3,0,14,0c9.8,0,19.6,0,29.4,0c0,5.1,0,10.2,0,15.3
		c0,14.4,0,28.7,0,43.1c0,3.3,0,6.7,0,10c0,6.2,5.4,12.1,11.8,11.8c6.4-0.3,11.8-5.2,11.8-11.8c0-9.1,0-18.1,0-27.2
		c0-13.7,0-27.5,0-41.3c2.9,0,5.8,0,8.7,0c9.9,0,19.8,0,29.7,0c0,5.1,0,10.2,0,15.3c0,14.4,0,28.7,0,43.1c0,3.3,0,6.7,0,10
		c0,6.2,5.4,12.1,11.8,11.8c6.4-0.3,11.8-5.2,11.8-11.8c0-9.1,0-18.1,0-27.2c0-13.7,0-27.5,0-41.3c7.1,0,14.2,0,21.3,0
		c5.7,0,11.4,0,17.1,0c0,5.1,0,10.2,0,15.3c0,14.4,0,28.7,0,43.1c0,3.3,0,6.7,0,10c0,6.2,5.4,12.1,11.8,11.8
		c6.4-0.3,11.8-5.2,11.8-11.8c0-9.1,0-18.1,0-27.2c0-13.7,0-27.5,0-41.3c7.9,0,15.8,0,23.7,0c6.7,0,13.3,0.1,20,0.1
		c0,0.9,0,1.7,0,2.6c0,11.5,0,23.1,0,34.6c0,14,0,28,0,42.1c0,12.1,0,24.1,0,36.2c0,2,0,4.1,0,6.1c-6.4,0-12.8,0-19.2,0
		c-1.5,0-3,0-4.4,0c-6.4,0-11.8,5.4-11.8,11.8c0,12.5,0,25,0,37.5c-7.9,0-15.8,0-23.7,0c-1.7,0-3.3,0-5,0c-6.4,0-11.8,5.4-11.8,11.8
		c0,13.2,0,26.3,0,39.5C288.5,366.6,280.5,366.6,272.4,366.6z" fill="#eb8919"/>
</g>
</svg>
