<?xml version="1.0" encoding="utf-8"?>
<!-- Generator: Adobe Illustrator 24.1.1, SVG Export Plug-In . SVG Version: 6.00 Build 0)  -->
<svg version="1.1" id="Layer_1" xmlns="http://www.w3.org/2000/svg" xmlns:xlink="http://www.w3.org/1999/xlink" x="0px" y="0px"
	 viewBox="0 0 353.8 474.9" style="enable-background:new 0 0 353.8 474.9;" xml:space="preserve">
<path d="M161.9,310.7c0,34.4,0,68.8,0,103.2c0,2.8,1.6,6.8-1.6,7.9c-3.1,1.2-4.7-2.8-6.8-4.7c-8.8-8.7-17.5-17.5-26.3-26.2
	c-4.1-4-8.5-7.5-14.8-6.2c-4.8,1-8.8,3.7-10,8.8c-1.5,5.9-0.1,10.9,4.3,15.3c21,20.9,42.2,41.9,62.9,63c4.6,4.7,7.5,3.5,11.5-0.6
	c20.3-20.4,40.7-40.7,61-61.1c7.2-7.3,8.1-16,2.5-21.7c-5.9-6.2-13.7-5.4-21.7,2.4c-9,8.5-17.5,17.5-26.3,26.2
	c-1.6,1.5-2.9,4.6-5.6,3.1c-2.1-1-1.2-3.7-1.2-5.7c0-69.4,0-138.7,0-208.1c0-1.9-0.9-4.6,1.6-5.4c2.4-0.9,3.5,1.6,5,2.9
	c33.5,33.4,66.9,66.9,100.4,100.4c1.5,1.5,3.7,2.9,2.9,5c-0.9,2.9-3.8,2.2-6,2.2c-11.8,0.1-23.5,0-35.3,0.1
	c-10.4,0.1-16.5,5-16.8,13.1c-0.3,8.1,5.7,14.3,15.6,14.4c30,0.4,60,0.1,89.9,0.3c4.3,0,6.6-1.8,6.6-6.2c0-31.2,0.3-62.3-0.3-93.5
	c-0.1-10.3-10.1-15.7-19.1-11.5c-6.8,3.2-7.9,9.8-8.1,16.5c-0.3,13.2,0,26.4-0.1,39.7c0,2.5,1.3,5.9-1.8,7.1c-2.4,0.9-4-2.1-5.4-3.7
	c-41.1-41.1-82.3-82.3-123.4-123.3c-4.1-4-5.9-8.4-5.7-14.1c0.3-17,0.4-34.1,0-51.1c-0.3-7.9,2.2-12.6,9.6-16.6
	c18.5-10.3,26-33.8,18.5-53.6c-7.5-19.8-29.1-32-49.5-28.1c-20.1,3.8-33.1,17.2-36.7,37.8c-3.2,17.6,5.3,35.6,22.5,45
	c6.5,3.5,8.5,7.6,8.4,14.5c-0.3,17-0.1,34.1-0.1,51.1c0,4.6-0.3,8.7-3.8,12.2c-41.4,41.3-82.7,82.7-124.2,124
	c-1.3,1.3-2.6,3.8-5,2.5c-2.1-1.2-1.3-3.7-1.3-5.7c0-12.9,0-25.9-0.1-38.8c-0.1-10.6-4.8-16.2-13.2-16.3
	c-8.4-0.1-14.1,5.1-14.3,15.6c-0.4,30-0.1,60-0.3,89.9c0,4.3,1.5,6.8,6,6.8c30.6-0.1,61.1,0.1,91.7-0.3c9.8-0.1,14.8-6,14.5-14.3
	c-0.1-8.1-5.6-12.8-15.6-13.1c-12.3-0.3-24.7,0-37-0.1c-2.8,0-6.8,1.5-8.1-1.5c-1.6-3.2,2.5-4.8,4.4-6.8
	c32.6-32.6,65.2-65.2,97.9-97.9c1.9-1.9,3.5-5.7,6.9-4.3c2.5,1.2,1.3,4.8,1.3,7.3C161.9,242.5,161.9,276.6,161.9,310.7z" fill="#696969"/>
</svg>
