<?xml version="1.0" encoding="utf-8"?>
<!-- Generator: Adobe Illustrator 24.1.1, SVG Export Plug-In . SVG Version: 6.00 Build 0)  -->
<svg version="1.1" id="Layer_1" xmlns="http://www.w3.org/2000/svg" xmlns:xlink="http://www.w3.org/1999/xlink" x="0px" y="0px"
	 viewBox="0 0 512 512" style="enable-background:new 0 0 512 512;" xml:space="preserve">
<g>
	<path d="M377.4,66.7c-1.2-2.8-3.8-4.6-6.8-4.7l-80.3-2.9c-12.7,0-16.3,1.4-23.4,10.2L126.8,256.4c-1.6,2.3-2,5.3-0.7,7.9
		c1.4,2.5,3.9,4.1,6.8,4.1l75.4,0.3c15.9,0.1,21.8,11,13.1,24.3L111.2,461.4c-2.1,3.3-1.4,7.6,1.7,10.1c1.4,1.1,3.2,1.6,5,1.6
		c1.8-0.1,3.7-0.9,5.1-2.4l241.5-253.9c2.1-2.2,2.6-5.3,1.4-8.2c-1.1-2.8-3.8-4.5-6.8-4.5l-39-0.1l-37.4-0.1
		c-15.6-0.2-19.6-9.6-8.8-21.1l102.1-108C377.9,72.6,378.5,69.3,377.4,66.7z" fill="#696969"/>
</g>
</svg>
