<?xml version="1.0" encoding="utf-8"?>
<!-- Generator: Adobe Illustrator 24.1.1, SVG Export Plug-In . SVG Version: 6.00 Build 0)  -->
<svg version="1.1" id="Layer_1" xmlns="http://www.w3.org/2000/svg" xmlns:xlink="http://www.w3.org/1999/xlink" x="0px" y="0px"
	 viewBox="0 0 512 512" style="enable-background:new 0 0 512 512;" xml:space="preserve">
<g>
	<path d="M274.5,399.3c-7.8,2.3-15.8,3.9-23.9,5c8.6-7.1,16.7-14.9,24.1-23.2c2.4-3,2-7.4-1.1-9.9c-2.8-2.3-6.9-2-9.5,0.6
		c-9,10.1-19,19.3-29.8,27.5V315c13.5,0.4,27,2.1,40.2,5.2c3.8,0.6,7.4-2,8-5.9c0.5-3.4-1.5-6.7-4.8-7.8
		c-14.3-3.3-28.8-5.2-43.5-5.6v-56.6h79.9c0,4.4-0.4,8.7-0.8,13.1c-0.4,3.9,2.4,7.3,6.2,7.7c0,0,0,0,0,0h0.7c3.6,0,6.7-2.7,7-6.3
		c0.4-4.8,0.8-9.7,0.9-14.5h67.5c0,3.9,3.1,7,7,7s7-3.1,7-7c0-2.3,0-4.7,0-7c-0.4-100.5-82.2-181.7-182.7-181.3
		C126.7,56.5,45.5,138.3,45.9,238.8S128.1,420.4,228.6,420c16.9-0.1,33.6-2.5,49.8-7.2c3.8-0.9,6.1-4.7,5.2-8.5
		c0-0.1-0.1-0.2-0.1-0.4c-1-3.7-4.9-5.9-8.6-4.9C274.7,399.2,274.6,399.2,274.5,399.3z M220.6,399.3c-25.3-19.4-45.8-44.5-59.6-73.2
		c19.1-6.6,39.1-10.3,59.3-11L220.6,399.3z M220.6,301c-22.2,0.8-44.3,4.8-65.3,12.1c-8.6-21.8-13.4-45-14-68.4h79.1L220.6,301z
		 M59.5,244.4H127c0.8,25.2,5.9,50.1,15.2,73.5c-16,6.7-31.1,15.3-45,25.7C74.2,315.5,61,280.7,59.5,244.4z M356,129.1
		c24.2,28.4,38.2,64,39.8,101.2h-67.4c-0.9-25.6-6.3-50.7-16-74.4C328,148.8,342.6,139.8,356,129.1z M306.8,143.1
		c-13.4-27.7-32.5-52.3-56.2-72c36.3,4.9,70,21.6,96,47.5c-12.3,9.7-25.7,17.9-39.9,24.4L306.8,143.1z M220.3,174.2v56.2H141
		c0.8-23.8,5.7-47.2,14.6-69.3C176.3,168.9,198.2,173.3,220.3,174.2z M161.1,148.3c13.8-28.4,34.1-53.2,59.2-72.4v84.2
		c-20.1-0.7-40-4.7-58.9-11.7L161.1,148.3z M234.3,75.9c25.1,19.2,45.3,44,59.1,72.5c-18.9,7.1-38.9,11.1-59.1,11.8V75.9z
		 M148.4,143c-14.1-6.5-27.4-14.7-39.6-24.4C134.6,92.7,168.2,76,204.4,71C180.9,90.8,161.8,115.3,148.4,143z M143.1,155.9
		c-9.7,23.7-15.1,48.9-16.1,74.4H59.5c1.6-37.2,15.5-72.8,39.6-101.2C112.6,139.8,127.4,148.8,143.1,155.9z M234.3,174.2
		c22.2-0.8,44.1-5.2,64.9-13.1c9,22,14.1,45.5,15,69.2h-79.8V174.2z M106.6,354.4c12.8-9.4,26.6-17.3,41.2-23.4
		c13.4,28.2,32.7,53.2,56.6,73.2C167.2,399.1,132.7,381.5,106.6,354.4z" fill="#696969"/>
	<path d="M452.5,342.7v-14.9c0-41-33.2-74.3-74.3-74.3c-41,0-74.3,33.2-74.3,74.3c0,0,0,0,0,0v14.9c-8,3.1-13.3,10.7-13.5,19.3v93
		c0,11.6,9.4,21.1,21.1,21.1h133.4c11.6,0,21.1-9.4,21.1-21.1v-93C465.9,353.4,460.5,345.8,452.5,342.7z M378.2,267.5
		c33.3,0,60.2,27,60.2,60.3v13.1h-14.6v-16.6c0-25.2-20.4-45.6-45.6-45.6s-45.6,20.4-45.6,45.6v16.6H318v-13.1
		C318,294.5,345,267.5,378.2,267.5z M409.8,340.9h-63.2v-16.6c0-17.4,14.1-31.6,31.6-31.6c17.4,0,31.6,14.1,31.6,31.6V340.9z
		 M452,455c0,3.9-3.1,7-7,7H311.5c-3.9,0-7-3.1-7-7v-93c0-3.9,3.1-7,7-7h133.4c3.9,0,7,3.1,7,7V455z" fill="#696969"/>
</g>
</svg>
