<?xml version="1.0" encoding="utf-8"?>
<!-- Generator: Adobe Illustrator 24.1.1, SVG Export Plug-In . SVG Version: 6.00 Build 0)  -->
<svg version="1.1" id="Layer_1" xmlns="http://www.w3.org/2000/svg" xmlns:xlink="http://www.w3.org/1999/xlink" x="0px" y="0px"
	 viewBox="0 0 1417.3 425.2" style="enable-background:new 0 0 1417.3 425.2;" xml:space="preserve">
<style type="text/css">
	.st0{fill:#101827;}
	.st1{fill:#FEFEFE;}
</style>
<rect x="-0.2" y="0.8" class="st0" width="1417.3" height="425.2"/>
<g>
	<path class="st1" d="M869.2,302.9c-31.6,0-63.3-0.6-94.9,0.2c-24.3,0.6-48-23.5-50.4-42.6c-0.2-1.8-0.3-3.6-0.3-5.5
		c0-27.6,0-55.3,0-82.9c0-11,3.8-20.4,11-28.5c7.9-8.9,16.6-16.8,29-19.1c4.6-0.9,9.3-0.9,13.9-1c55.3,0,110.6,0,165.9,0
		c8.6,0,17.3-0.3,25.9-0.6c2.6-0.1,3.4,0.6,3.4,3.3c-0.1,13.1-0.2,26.3,0,39.5c0.1,3.2-1.4,3.3-3.8,3.3c-22.8,0-45.6,0-68.5,0
		c-38.1,0-76.3,0-114.4,0c-10.3,0-12.4,2-12.4,12.2c0,21.1,0,42.3,0,63.4c0,11,2.1,13.1,13.1,13.1c35.6,0,71.3,0,106.9,0
		c24.5,0,49,0,73.5,0c3.1,0,4.6,0.3,4.7,4.1c0.3,12.3,0.3,24.6,0,36.9c-0.1,3.7-1.4,4.2-4.6,4.2
		C934.5,302.8,901.9,302.9,869.2,302.9C869.2,302.9,869.2,302.9,869.2,302.9z"/>
	<path class="st1" d="M137.2,301.5c5.4-5.1,10.8-10.2,16.1-15.3c48.4-46.7,95.3-95,143.1-142.3c2.7-2.7,5.4-5.5,8.1-8.1
		c8.3-7.8,17.8-12.2,29.6-12c25.2,0.3,50.3,0.2,75.5,0.1c3.1,0,4.2,0.6,4.2,4c-0.1,56.9-0.1,113.9,0,170.8c0,3.2-0.7,4.2-4,4.1
		c-14.2-0.2-28.3-0.2-42.5,0c-3.7,0.1-4.6-0.8-4.6-4.6c0.2-41.3,0-82.6,0.2-123.9c0-4.1-0.9-5-5.1-5.3c-9.6-0.7-16.6,2.8-23.4,9.6
		c-40.2,40.4-80.7,80.4-121,120.7c-2.6,2.6-5,3.6-8.7,3.6c-20.8-0.2-41.6-0.1-62.5-0.2c-1.4,0-2.9,0-4.3,0
		C137.7,302.4,137.5,301.9,137.2,301.5z"/>
	<path class="st1" d="M1279.7,302.9c-24.5,0-47.5-0.1-70.5,0.1c-2.8,0-4.2-1.7-5.8-3.3c-41.1-40.9-82.4-81.6-123.1-122.8
		c-7.5-7.6-15.9-7.9-25.1-7.6c-1.5,0-2.1,0.7-2,2.1c0,1.3,0,2.7,0,4c0,38.8,0,77.6,0,116.4c0,11.1,0,11.1-11,11.1c-12,0-24-0.1-36,0
		c-2.7,0-3.7-0.6-3.7-3.5c0.1-57.3,0.1-114.5,0-171.8c0-2.7,0.6-3.6,3.5-3.6c26.8,0.1,53.6-0.2,80.5,0.1
		c10.6,0.1,19.2,5.7,26.6,13.1c46.5,46.5,93,93.1,139.7,139.4C1261.4,285,1270,293.5,1279.7,302.9z"/>
	<path class="st1" d="M698.6,298.7c-9.2-17.4-18.1-34.9-26.6-52.7c-1.8-3.7-1.7-5.7,1.6-8.5c13.4-11,20.2-25.1,19.2-42.8
		c-0.4-6.8,0-13.7-0.1-20.5c-0.1-20.1-14.6-40.6-33.6-47.6c-5.2-1.9-10.4-2.9-16-2.9c-64.8,0.1-129.6,0.1-194.4,0
		c-4.3,0-5,1.2-5,5.2c0.1,56.4,0.2,112.9,0,169.3c0,4.8,1.5,5.6,5.8,5.5c11.2-0.3,22.3-0.1,33.5-0.1c11.5,0,11.5,0,11.5-11.6
		c0-12.8,0.1-25.6-0.1-38.5c0-3,0.7-3.9,3.8-3.9c38,0.1,76,0.1,114,0c2.3,0,3.9,0.3,5,2.8c7,16.1,15.8,31.3,21.4,48
		c0.6,1.9,1.1,3.2,3.7,3c14.6-1.6,29.3-0.4,43.9-0.8c4.6-0.1,9.2,0,14.4,0C699.7,301,699.2,299.9,698.6,298.7z M642.6,192.7
		c0,9.4-2.2,11.6-11.9,11.7c-17.1,0-34.3,0-51.4,0c-4.7,0-9.3,0-14,0c-21.8,0-43.6-0.2-65.4,0.1c-4.8,0.1-5.7-1.5-5.6-5.8
		c0.3-8.5,0.2-17,0-25.5c-0.1-2.9,0.5-4.1,3.8-4c44.6,0.1,89.2,0,133.9,0.1c8.1,0,10.5,2.7,10.6,10.9
		C642.6,184.4,642.6,188.6,642.6,192.7z"/>
</g>
</svg>
