<?xml version="1.0" encoding="utf-8"?>
<!-- Generator: Adobe Illustrator 24.1.1, SVG Export Plug-In . SVG Version: 6.00 Build 0)  -->
<svg version="1.1" id="Layer_1" xmlns="http://www.w3.org/2000/svg" xmlns:xlink="http://www.w3.org/1999/xlink" x="0px" y="0px"
	 viewBox="0 0 230.8 263" style="enable-background:new 0 0 230.8 263;" xml:space="preserve">
<style type="text/css">
	.st0{fill:#F5F2E8;}
	.st1{fill:#8990B0;}
	.st2{fill:#41464F;}
	.st3{fill:#6F7279;}
	.st4{fill:#B8BCCF;}
	.st5{fill:#E8E7EC;}
	.st6{fill:#CFCFDA;}
	.st7{fill:#F2F1F4;}
	.st8{fill:#F6F6F8;}
	.st9{fill:#DADAE6;}
	.st10{fill:#3A3F47;}
	.st11{fill:#A0A6C0;}
	.st12{fill:#93DA42;}
	.st13{fill:#3D6627;}
	.st14{fill:#FFE56F;}
	.st15{fill:#4B5059;}
</style>
<g id="Router" transform="translate(-29.588 -328.89)">
	<path id="Path_1024" class="st0" d="M140.3,487.9L36.9,547.6l-7.3,10.7c0,0,17.4,11.4,24.5,14l54.3,19.6l41.3-3.3l103.5-59.8
		l2.4-6.2l-8.3-3.7l0,0l-35.6-22.3c-10-11.8-25.8-17.1-40.9-13.7l-3.5,0.8C163.7,484.6,143.7,486,140.3,487.9z"/>
	<g id="Group_116" transform="translate(44.973 328.89)">
		<path id="Path_1025" class="st1" d="M10.4,226.2l0.1,0.2c1.4,5.2,5.3,9.4,10.4,11.3L74,256.9v-5.1l-63.4-34.1L10.4,226.2z"/>
		<g id="Group_110" transform="translate(6.252 30.189)">
			<path id="Path_1026" class="st2" d="M29.3,153c0,0-6.9-3.8-9.3-3.8c-2.3,0-5.4,0.2-5.4,5.5c-0.1,3,1.8,5.6,4.6,6.5l11.6,4.2
				C30.8,165.3,37.7,155.4,29.3,153z"/>
			<g id="Group_109" transform="translate(0.917)">
				<path id="Path_1027" class="st2" d="M21.2,150.5c2.8,1.6,5.7,4.4,4.5,5.1s-6-1-8.8-2.6s-1.6-2-0.5-2.7
					C17.7,149.5,18.4,148.9,21.2,150.5z"/>
				<path id="Path_1028" class="st2" d="M15.2,151.4v-50.3l10.8,3.7v50.3L15.2,151.4z"/>
				<path id="Path_1029" class="st3" d="M21.2,100.3c2.8,1.6,5.7,4.4,4.5,5.1c-1.2,0.7-6-1-8.8-2.6s-1.6-2-0.5-2.7
					C17.7,99.3,18.4,98.7,21.2,100.3z"/>
				<path id="Path_1030" class="st2" d="M20.7,100.5c2,1.2,4.5,3.4,3.6,3.8s-4.7-1-6.7-2.1c-2-1.2-1.2-1.5-0.3-1.9
					C18.2,99.8,18.7,99.3,20.7,100.5z"/>
				<path id="Path_1031" class="st2" d="M16.4,21.4v79.7l8.1,3l-1.9-79.9C22.6,24.1,17.2,20.4,16.4,21.4z"/>
				<path id="Path_1032" class="st3" d="M20.7,21.5c2,1.6,2.2,3.1,1.4,3.5s-2.4-0.5-4.5-2.1s-1.2-1.8-0.3-2.2S18.7,19.8,20.7,21.5z"
					/>
			</g>
		</g>
		<g id="Group_112" transform="translate(32.395 15.094)">
			<path id="Path_1033" class="st2" d="M46.8,142.8c0,0-6.9-3.8-9.3-3.8s-5.4,0.2-5.4,5.5c-0.1,3,1.8,5.6,4.6,6.5l11.6,4.2
				C48.4,155.2,55.3,145.3,46.8,142.8z"/>
			<g id="Group_111" transform="translate(0.917)">
				<path id="Path_1034" class="st2" d="M38.8,140.3c2.8,1.6,5.7,4.4,4.5,5.1s-6-1-8.8-2.6s-1.6-2-0.5-2.7
					C35.3,139.4,36,138.7,38.8,140.3z"/>
				<path id="Path_1035" class="st2" d="M32.8,141.3V91l10.8,3.7V145L32.8,141.3z"/>
				<path id="Path_1036" class="st3" d="M38.8,90.1c2.8,1.6,5.7,4.4,4.5,5.1c-1.2,0.7-6-1-8.8-2.6s-1.6-2-0.5-2.7
					C35.3,89.2,36,88.5,38.8,90.1z"/>
				<path id="Path_1037" class="st2" d="M38.3,90.3c2,1.2,4.5,3.4,3.6,3.8c-0.8,0.5-4.7-1-6.7-2.1s-1.2-1.5-0.3-1.9
					C35.8,89.7,36.3,89.2,38.3,90.3z"/>
				<path id="Path_1038" class="st2" d="M34,11.3V91l8.1,3l-1.9-79.9C40.2,14,34.8,10.3,34,11.3z"/>
				<path id="Path_1039" class="st3" d="M38.3,11.3c2,1.6,2.2,3.1,1.4,3.5s-2.4-0.5-4.5-2.1c-2-1.6-1.2-1.8-0.3-2.2
					C35.8,10.1,36.3,9.7,38.3,11.3z"/>
			</g>
		</g>
		<g id="Group_114" transform="translate(58.538)">
			<path id="Path_1040" class="st2" d="M64.4,132.7c0,0-6.9-3.8-9.3-3.8c-2.3,0-5.4,0.2-5.4,5.5c-0.1,3,1.8,5.6,4.6,6.5l11.6,4.2
				C66,145,72.9,135.1,64.4,132.7z"/>
			<g id="Group_113" transform="translate(0.917)">
				<path id="Path_1041" class="st2" d="M56.4,130.2c2.8,1.6,5.7,4.4,4.5,5.1c-1.2,0.7-6-1-8.8-2.6s-1.6-2-0.5-2.7
					C52.9,129.2,53.6,128.6,56.4,130.2z"/>
				<path id="Path_1042" class="st2" d="M50.4,131.1V80.8l10.8,3.7v50.3L50.4,131.1z"/>
				<path id="Path_1043" class="st3" d="M56.4,80c2.8,1.6,5.7,4.4,4.5,5.1c-1.2,0.7-6-1-8.8-2.6s-1.6-2-0.5-2.7
					C52.9,79.1,53.6,78.4,56.4,80z"/>
				<path id="Path_1044" class="st2" d="M55.8,80.2c2,1.2,4.5,3.4,3.6,3.8c-0.8,0.5-4.7-1-6.7-2.1c-2-1.2-1.2-1.4-0.3-1.9
					S53.9,79,55.8,80.2z"/>
				<path id="Path_1045" class="st2" d="M51.6,1.1v79.7l8.1,3L57.8,3.9C57.8,3.8,52.4,0.1,51.6,1.1z"/>
				<path id="Path_1046" class="st3" d="M55.9,1.2c2,1.6,2.2,3.1,1.4,3.5s-2.4-0.5-4.5-2.1c-2-1.6-1.2-1.8-0.3-2.2
					C53.4,0,53.9-0.5,55.9,1.2z"/>
			</g>
		</g>
		<path id="Path_1047" class="st4" d="M27.8,187l-8.4,10.6l-8.8,20.1c-0.1,6.9,4.1,13.1,10.6,15.4L74,251.9l-1.3-24.3L27.8,187z"/>
		<path id="Path_1048" class="st5" d="M186.3,136c-10-11.8-25.8-17.1-40.9-13.7l-3.5,0.8c-3.8,0.8-7.4,2.2-10.7,4.2L27.8,187
			l-4.9,7.2c-3.6,5.3-2.2,12.6,3.2,16.2c0.8,0.5,1.6,1,2.5,1.3l44,15.9l30.7-4.5l93.1-53.7l4.6-15.9L186.3,136z"/>
		<path id="Path_1049" class="st6" d="M147.6,124.9L72,218.8l0.8,8.7l-44-15.9c-6.1-2.2-9.2-8.9-7-15c0.3-0.9,0.8-1.8,1.3-2.5
			l4.9-7.2l103.4-59.7c3.3-1.9,7-3.3,10.7-4.2l3.5-0.8c3.1-0.7,6.3-1,9.5-1C152.3,122,149.8,123.2,147.6,124.9z"/>
		<path id="Path_1050" class="st7" d="M30.1,188.3l0.9-1.4l101.9-58.8c3.3-1.9,6.9-3.3,10.7-4.2l0,0c15.4-3.4,31.3,2.1,41.3,14.2
			l10.6,12.9l-2.7,11.5l-91,52.5l-24.5,3.6l-5.4,0.2l-36.1-13c-6.1-2.2-9.2-8.9-7-14.9C29.2,190,29.6,189.1,30.1,188.3z"/>
		<path id="Path_1051" class="st8" d="M185,138.2c-4.3-5.3-9.9-9.4-16.2-12c4.9,2.6,9.2,6.1,12.7,10.4l10.6,12.9l-2.7,11.5l-91,52.5
			l-24.5,3.6l-5.4,0.2l-35.2-12.7c0.8,0.6,1.7,1,2.6,1.4L72,219l5.4-0.2l24.5-3.6l91-52.5l2.7-11.5L185,138.2z"/>
		<path id="Path_1052" class="st9" d="M215.4,176.3l-14.3-22.9l-4.6,15.9L103.4,223l-30.7,4.5l1.3,24.3l37.5-4l99.3-57.3
			L215.4,176.3z"/>
		<path id="Path_1053" class="st5" d="M196.5,169.3l14.3,21.1l-99.3,57.4l-8.1-24.7L196.5,169.3z"/>
		<path id="Path_1054" class="st10" d="M118.3,218l67.5-39c2.9-1.7,6.5-0.7,8.3,2.1l1.1,1.8c3.1,5,1.6,11.5-3.4,14.6
			c-0.1,0.1-0.2,0.1-0.3,0.2L126.9,235c-4,2.3-9.1,0.9-11.3-3c-0.3-0.5-0.5-1-0.7-1.6l-0.6-1.8C112.9,224.6,114.6,220.2,118.3,218z"
			/>
		<path id="Path_1055" class="st11" d="M215.4,181.4v-5.1l-4.6,14.2l-99.3,57.3l-37.5,4v5.1l37.5-4l99.3-57.3L215.4,181.4z"/>
		<g id="Group_115" transform="translate(69.603 113.184)">
			<path id="Path_1056" class="st12" d="M61.6,105.4c-0.3-0.4-0.8-0.5-1.2-0.2l0,0l-2.7,1.6c-0.4,0.2-0.6,0.7-0.4,1.1l0.2,0.3
				c0.3,0.4,0.8,0.5,1.2,0.2l0,0l2.7-1.6c0.4-0.2,0.6-0.7,0.4-1.1L61.6,105.4z"/>
			<path id="Path_1057" class="st13" d="M71.6,99.6c-0.3-0.4-0.8-0.5-1.2-0.2l0,0l-2.7,1.6c-0.4,0.2-0.6,0.7-0.4,1.1l0.2,0.3
				c0.3,0.4,0.8,0.5,1.2,0.2l0,0l2.7-1.6c0.4-0.2,0.6-0.7,0.4-1.1L71.6,99.6z"/>
			<path id="Path_1058" class="st13" d="M81.7,93.8c-0.3-0.4-0.8-0.5-1.2-0.2l0,0l-2.7,1.6c-0.4,0.2-0.6,0.7-0.4,1.1l0.2,0.3
				c0.3,0.4,0.8,0.5,1.2,0.2l0,0l2.7-1.6c0.4-0.2,0.6-0.7,0.4-1.1L81.7,93.8z"/>
			<path id="Path_1059" class="st14" d="M91.7,88c-0.3-0.4-0.8-0.5-1.2-0.2l0,0l-2.7,1.6c-0.4,0.2-0.6,0.7-0.4,1.1l0.2,0.3
				c0.3,0.4,0.8,0.5,1.2,0.2l0,0l2.7-1.6c0.4-0.2,0.6-0.7,0.4-1.1L91.7,88z"/>
			<path id="Path_1060" class="st12" d="M101.7,82.3c-0.3-0.4-0.8-0.5-1.2-0.2l0,0l-2.7,1.6c-0.4,0.2-0.6,0.7-0.4,1.1l0.2,0.3
				c0.3,0.4,0.8,0.5,1.2,0.2l0,0l2.7-1.6c0.4-0.2,0.6-0.7,0.4-1.1L101.7,82.3z"/>
			<path id="Path_1061" class="st13" d="M111.9,76.8l-0.2-0.3c-0.3-0.4-0.8-0.5-1.2-0.2l0,0l-2.7,1.6c-0.4,0.2-0.6,0.7-0.4,1.1
				l0.2,0.3c0.3,0.4,0.8,0.5,1.2,0.2l0,0l2.7-1.6C111.9,77.7,112.1,77.2,111.9,76.8z"/>
		</g>
		<path id="Path_1062" class="st10" d="M27.8,187H31l101.9-58.8l-1.7-0.9L27.8,187z"/>
		<path id="Path_1063" class="st15" d="M31.1,187l2.6,0.9c3.2,1.2,6.7,0.8,9.7-0.8l91.2-52.6c1.5-0.9,2-2.7,1.1-4.2
			c-0.3-0.5-0.6-0.8-1.1-1.1l-1.6-1L31.1,187z"/>
	</g>
</g>
</svg>
