<?xml version="1.0" encoding="utf-8"?>
<!-- Generator: Adobe Illustrator 24.1.1, SVG Export Plug-In . SVG Version: 6.00 Build 0)  -->
<svg version="1.1" id="Layer_1" xmlns="http://www.w3.org/2000/svg" xmlns:xlink="http://www.w3.org/1999/xlink" x="0px" y="0px"
	 viewBox="0 0 512 512" style="enable-background:new 0 0 512 512;" xml:space="preserve">
<g transform="matrix( 1, 0, 0, 1, 0,0) ">
	<g>
		<g id="a">
			<path d="M395.8,290.5c-3.2,0-6,1.2-8.4,3.5l-120,120V68.7c0-3.2-1.2-6-3.5-8.2c-2.2-2.3-4.9-3.5-8.2-3.5c-3.2,0-6,1.2-8.4,3.5
				c-2.2,2.2-3.3,4.9-3.3,8.2v345.4L123.7,294c-2.2-2.3-4.9-3.5-8.2-3.5c-3.2,0-6,1.2-8.4,3.5c-2.2,2.2-3.3,4.9-3.3,8.2
				c0,3.2,1.1,6,3.3,8.4l140.1,140.1c2.4,2.2,5.2,3.3,8.4,3.3c3.2,0,6-1.1,8.2-3.3L404,310.6c2.3-2.4,3.5-5.2,3.5-8.4
				c0-3.2-1.2-6-3.5-8.2C401.8,291.7,399,290.5,395.8,290.5z" fill="#eb8919"/>
		</g>
	</g>
</g>
</svg>
