<?xml version="1.0" encoding="utf-8"?>
<!-- Generator: Adobe Illustrator 24.1.1, SVG Export Plug-In . SVG Version: 6.00 Build 0)  -->
<svg version="1.1" id="Layer_1" xmlns="http://www.w3.org/2000/svg" xmlns:xlink="http://www.w3.org/1999/xlink" x="0px" y="0px"
	 viewBox="0 0 190.5 311" style="enable-background:new 0 0 190.5 311;" xml:space="preserve">
<g>
	<path d="M181.2,274.7h-57.4c-2.5-6.9-7.7-12.5-14.4-15.5v-27.1h62.9c4.9,0,8.8-4,8.8-8.8V8.8c0-4.9-4-8.8-8.8-8.8H18.1
		c-4.9,0-8.8,4-8.8,8.8v214.5c0,4.9,4,8.8,8.8,8.8h69.3v27.1c-6.7,3-11.9,8.6-14.4,15.5H9.2c-5.1,0-9.2,4.1-9.2,9.2s4.1,9.2,9.2,9.2
		H73c3.8,10.4,13.8,17.8,25.5,17.8c11.7,0,21.7-7.4,25.5-17.8h57.4c5.1,0,9.2-4.1,9.2-9.2C190.5,278.8,186.4,274.7,181.2,274.7z
		 M164.8,222.3c-3.8,0-6.9-3.1-6.9-6.9c0-3.8,3.1-6.9,6.9-6.9c3.8,0,6.9,3.1,6.9,6.9C171.8,219.2,168.7,222.3,164.8,222.3z
		 M164.8,10.4c3.8,0,6.9,3.1,6.9,6.9s-3.1,6.9-6.9,6.9c-3.8,0-6.9-3.1-6.9-6.9C157.9,13.5,161,10.4,164.8,10.4z M23.7,222.3
		c-3.8,0-6.9-3.1-6.9-6.9c0-3.8,3.1-6.9,6.9-6.9s6.9,3.1,6.9,6.9C30.7,219.2,27.6,222.3,23.7,222.3z M23.7,24.2
		c-3.8,0-6.9-3.1-6.9-6.9s3.1-6.9,6.9-6.9s6.9,3.1,6.9,6.9S27.6,24.2,23.7,24.2z M71.6,197.7c-22.6,0-40.9-18.3-40.9-40.9
		c0-0.2,0-0.4,0-0.7l22.8-7.5c-0.7,1.9-1,4-1,6.1c0,10.6,8.6,19.1,19.1,19.1c7,0,13.2-3.8,16.5-9.5l8.2,24.9
		C89.5,194.6,81,197.7,71.6,197.7z M78.6,162.8c-6.4,4.1-13.1,4.3-15.5,0.5c0,0,0,0,0-0.1c-2.4-3.8,0.7-9.8,7.1-13.9
		c4.9-3.1,48.2-24.3,51.3-25.8c1.4-0.7,2.8-0.5,3.4,0.4c0.6,0.9,0.1,2.3-1.1,3.3C121.1,129.4,83.4,159.8,78.6,162.8z M127.6,131.9
		c3.6-2.9,4.6-7.6,2.4-11.1c-1.4-2.2-4-3.6-6.8-3.6c-1.4,0-2.9,0.3-4.3,1c-0.5,0.2-46.4,22.6-51.9,26.1c-0.2,0.1-0.4,0.3-0.6,0.4
		c-17.5-10.8-29.2-30.1-29.2-52.2c0-33.8,27.4-61.3,61.3-61.3c33.8,0,61.3,27.4,61.3,61.3c0,33.2-26.4,60.2-59.4,61.2
		C113,143.7,127.3,132.1,127.6,131.9z " fill="#eb8919"/>
	<path d="M98.4,72.1c-11.2,0-20.4,9.1-20.4,20.4c0,11.2,9.1,20.4,20.4,20.4c11.2,0,20.4-9.1,20.4-20.4
		C118.8,81.2,109.7,72.1,98.4,72.1z M98.4,100.1c-4.2,0-7.7-3.4-7.7-7.7c0-4.2,3.4-7.7,7.7-7.7c4.2,0,7.7,3.4,7.7,7.7
		C106.1,96.7,102.7,100.1,98.4,100.1z" fill="#eb8919"/>
</g>
</svg>
