<?xml version="1.0" encoding="utf-8"?>
<!-- Generator: Adobe Illustrator 24.1.1, SVG Export Plug-In . SVG Version: 6.00 Build 0)  -->
<svg version="1.1" id="Layer_1" xmlns="http://www.w3.org/2000/svg" xmlns:xlink="http://www.w3.org/1999/xlink" x="0px" y="0px"
	 viewBox="0 0 512 512" style="enable-background:new 0 0 512 512;" xml:space="preserve">
<style type="text/css">
	.st0{fill-rule:evenodd;clip-rule:evenodd;}
</style>
<g>
	<g>
		<path class="st0" d="M304.6,365.6c5.4,0,9.7-4.4,9.7-9.7c0-5.4-4.4-9.7-9.7-9.7s-9.7,4.4-9.7,9.7
			C294.8,361.2,299.2,365.6,304.6,365.6" fill="#eb8919"/>
		<path class="st0" d="M343.5,365.6c5.4,0,9.7-4.4,9.7-9.7c0-5.4-4.4-9.7-9.7-9.7c-5.4,0-9.7,4.4-9.7,9.7
			C333.8,361.2,338.1,365.6,343.5,365.6" fill="#eb8919"/>
		<path class="st0" d="M382.5,365.6c5.4,0,9.7-4.4,9.7-9.7c0-5.4-4.4-9.7-9.7-9.7c-5.4,0-9.7,4.4-9.7,9.7
			C372.7,361.2,377.1,365.6,382.5,365.6" fill="#eb8919"/>
		<g transform="translate(11.000000, 36.000000)">
			<path class="st0" d="M400.7,305.2v29.3c0,5.3-4.4,9.7-9.7,9.7H98.9c-5.4,0-9.7-4.4-9.7-9.7v-29.3c0-5.4,4.4-9.7,9.7-9.7h292.1
				C396.3,295.5,400.7,299.8,400.7,305.2 M431.2,133.6c-3.8-3.8-10-3.8-13.8,0L274.9,276h-60.1L72.4,133.6c-3.8-3.8-10-3.8-13.8,0
				c-3.8,3.8-3.8,10,0,13.8L187.3,276H98.9c-16.1,0-29.2,13.1-29.2,29.2v29.3c0,16.1,13.1,29.2,29.2,29.2h292.1
				c16.1,0,29.2-13.1,29.2-29.2v-29.3c0-16.1-13.1-29.2-29.2-29.2h-88.5l128.7-128.7C434.9,143.5,435,137.4,431.2,133.6" fill="#eb8919"/>
		</g>
		<path class="st0" d="M345.9,174.1c3.8-3.8,3.8-10,0-13.8c-49.4-49.4-129.6-49.4-179,0c-3.8,3.8-3.8,10,0,13.8
			c3.8,3.8,10,3.8,13.8,0c41.8-41.8,109.6-41.8,151.4,0C336,177.9,342.1,177.9,345.9,174.1" fill="#eb8919"/>
		<path class="st0" d="M311.5,208.5c3.8-3.8,3.8-10,0-13.8c-30.4-30.4-79.7-30.4-110.1,0c-3.8,3.8-3.8,10,0,13.8
			c3.8,3.8,10,3.8,13.8,0c22.8-22.8,59.8-22.8,82.6,0C301.6,212.3,307.7,212.3,311.5,208.5" fill="#eb8919"/>
		<path class="st0" d="M246.2,234.1c0,5.4,4.3,9.7,9.7,9.7c5.4,0,9.7-4.3,9.7-9.7c0-5.4-4.3-9.7-9.7-9.7
			C250.5,224.4,246.2,228.7,246.2,234.1" fill="#eb8919"/>
	</g>
</g>
</svg>
