<?xml version="1.0" encoding="utf-8"?>
<!-- Generator: Adobe Illustrator 24.1.1, SVG Export Plug-In . SVG Version: 6.00 Build 0)  -->
<svg version="1.1" id="Layer_1" xmlns="http://www.w3.org/2000/svg" xmlns:xlink="http://www.w3.org/1999/xlink" x="0px" y="0px"
	 viewBox="0 0 512 512" style="enable-background:new 0 0 512 512;" xml:space="preserve">
<g transform="matrix( 1, 0, 0, 1, 0,0) ">
	<g>
		<g id="a">
			<path d="M404,217c2.3-2.2,3.5-4.9,3.5-8.2c0-3.2-1.2-6-3.5-8.4L263.9,60.3c-2.2-2.2-4.9-3.3-8.2-3.3c-3.2,0-6,1.1-8.4,3.3
				L107.2,200.4c-2.2,2.4-3.3,5.2-3.3,8.4c0,3.2,1.1,6,3.3,8.2c2.4,2.3,5.2,3.5,8.4,3.5c3.2,0,6-1.2,8.2-3.5L244,96.9v345.4
				c0,3.2,1.1,6,3.3,8.2c2.4,2.3,5.2,3.5,8.4,3.5c3.2,0,6-1.2,8.2-3.5c2.3-2.2,3.5-4.9,3.5-8.2V96.9l120,120
				c2.4,2.3,5.2,3.5,8.4,3.5C399,220.5,401.8,219.3,404,217z" fill="#eb8919"/>
		</g>
	</g>
</g>
</svg>
